<mxfile host="app.diagrams.net" modified="2021-06-04T04:13:03.640Z" agent="5.0 (X11; Linux x86_64) AppleWebKit/537.36 (KHTML, like Gecko) Chrome/91.0.4472.77 Safari/537.36" etag="VhxqMUnAcnNbfYzCROVa" version="14.7.5" type="github">
  <diagram id="Y8UNk4jeRQo-DknL61_6" name="Halaman-1">
    <mxGraphModel dx="1422" dy="775" grid="1" gridSize="10" guides="1" tooltips="1" connect="1" arrows="1" fold="1" page="1" pageScale="1" pageWidth="827" pageHeight="1169" math="0" shadow="0">
      <root>
        <mxCell id="0" />
        <mxCell id="1" parent="0" />
        <mxCell id="GbGGO6XTbphgnzqrixOe-2" value="" style="shape=image;verticalLabelPosition=bottom;labelBackgroundColor=#ffffff;verticalAlign=top;aspect=fixed;imageAspect=0;image=data:image/png,iVBORw0KGgoAAAANSUhEUgAAAWcAAALkCAIAAABcFmMxAAAgAElEQVR4Aeydh1sTadf/f3/G+7xP3adt38ddVyBYsaNgQTqISG8qHaTYALHArgpYULFQRAQRkKpAKNJEepUaAQkgvSch9+9y59m8MYkhZZLMTA7XXLsz95z7nHN/z+Tj5J7JzP9D8AcKgAKggDQK/D9pjMEWFAAFQAEE1ICDABQABaRTAKghnV5gDQqAAkANOAZAAVBAOgWAGtLpBdagACgA1IBjABQABaRTAKghnV5gDQqAAkANOAZAAVBAOgWAGtLpBdagACgA1IBjQFIF5ubmxsfHP3z4MDMzI2kfsKOiAkANKlZV1jENDw9XVlQkJz+6dPGCq4uLvt5empbmD999u27tT2t++J6mpblz+7ZdO7bTtDR/XPOfn3/68ftvv6Fpae7R3e3s6Bh+/nxSYkJ5WdnAwICs8aEfORQAapCjTgrKksPhtLS0xN294+zoqLnu553btzk62J8PC0tMSCgrK2UwGEtLS+JDLy8vDw4OVrx69ehR0oXwcBcnJ93du37+6Uc7W5vYW7ca6uvZbLZ4D7CXdAoANUhXMhwS5nA4JSV09xPHf1qzxsTIKDLickkJfXZ2FgfXv7lYWFiorKi48uuvFuZmP675j4uT04uCAjaLhZd/8KNaBYAaqtVf2dE7OzvPnjmtpbHOxtr6eVbWqqcS8ufHZrEKCvKdHR3Xrf0pMOBkY2Oj/D7Bg2oVAGqoVn/lRW9ubraxtt62VefhgweTk5PKC/x7pJmZmZTHj3V37zI3NXn9uub3Zvg/+RQAapCvZtJmPDU15ePtpbNlc15eLpfLlbY77vZ0On33zh2uzs6jIyO4OweHSlAAqKEEkVUZoqqqaj2Ndj0mhlDTCisrKw8fPKBpahS+fKlKdSC2TAoANWSSjSSdMjMyNmhrt7a2EDPfnp6erTpb4h8+JGZ6kNXnFABqfE4Z0rfTi4u3bNo4PDxM5JFMTEzo7tqZnv6UyElCbgIKADUEBKHI5ocPH7Q01vX09Mg2nqamphvXr8fF3WUyP0JneXk5NydHjKuc7GyZvwExmcM0TQ0GgyHGP+wilAJADUKVA7dkgoOCYm/dks1dXl7uv//593/87W9f/vuf337zVWVFxQ/ff7dHd7dIb9PT09u2bPnT//5hcXFRpIEkjWmpqa7OzpJYgg0RFABqEKEKOOfAZrPXrf1J5ru27Gxs/vP9dxo/r13745p///MfP3z33b/+8fe//+2vQQEBW7ds+earLw0OHCh8+XLzpg1aGj+v+c/3f/3LnzR/XnvMzVXmYbDZbM11P8PPW2QWUMkdgRpKFlwZ4Rj9/fv19WWOFP/w4bdff/2fH75f++OPGut+3r5V56t//fMvf/rjn/73D1/85S9//MP/fPmvfxgc2P/nP/7vH//wP3/985+/+MtftNb9bGJkJHNEhJDtUes3tbXyeIC+SlMAqKE0qZUXqL2tzdzUROZ4v0RGrvnPD3t27/7um2++/upLQwOD777+eq/u7vDz5//4h//54x/+5+9f/E2bpvXPv3+h8fPaly9f/usff6dpasjzDQUhdMzNtbS0ROacoaMyFQBqKFNtJcWanp7WpmnJHGzH9m0/fPutpYX5Ht3dWhrr9uh+xMcPP3z/xV//snXLlu++/uqfX3xB09L86st/bd+6ta+v95//+PumDesjLl+SOSJCaO8e3b6+Xnk8QF+lKQDUUJrUSg10yOBg3Zs3soWsePXqq3//84u//fXvf/3rN19/+fp1zXdff/X3v/7lz3/833988cVv30r+9Le//PmLv/x55/Zt8/PzX/77X+t++mmDtrZs4RBCfX29Ols2y9wdOipZAaCGkgVXUriiwsKD+/etrKzIFm9ycrK4qKimpmZubg4hNDAwUF5WNjs7W1lR0VBfX15WVlpaUlpagoFpZmaGXlw8wmTKFgub1Eh98kTm7tBRyQoANZQsuPLCnTh+LDTknPLiyRrpxvXrhy0tiPADGVlHoHb9gBqULfny8rKR4aGw0FAifyBjYqJ1d+2Ea67kOgqBGuSql3TZLi0tOTk6WB22HBsbk66n4q1npqddnJwsLcxlvq9E8TlCBNEKADVE60Kl1oT4eC2NdQ8fPOBwOEQYF5fLTUtNpWlpXo+JkXnmhQgDUdscgBpqUfrh4eFjbq5bNm18nJws8w9G5FeKw+FkZWbu2rHdztaG0d8vv0PwoBIFgBoqkV01Qbu6ujzcT2BP4nv9ukaZ8x2NjY1nTp/S0ljn5OjQ0kLQX+6rpiokjArUIGHR5EsZexKfmYnJehrtfFhYcVGRgiYj5+fny8pKL1+6qLN5k8GB/fEPH6rkyYPyqQW9RSgA1BAhipo0jTCZDx88cHN10dJYt3P7tqDAwPSnaY0NDTJ/tmemp5ubmzMzMs6cPrVHd/e6tT85OtjfvXMb3pBCsSMKqEGxgso4nKGhoadpaaeCg60OW27euGHNf37Q3bXT0cE+KDAwLDQ06trV2Fu3EuLjnz1Lz8zISIiPv3M7NjrqWlhoaHBQkIuT0x7d3T+u+c/G9doW5maBASdTHj/u7+uTMRXoRngFgBqEL5EqEuRyue/fv6+qrMzKzExOfvTg/v2Y6KhLFy9YHbYwPHTwQnh4THTUvbi4R4+SsjIzX5WXDwwMwNUQVRRKNTGBGqrRnaRR4x8+jIy4TNLkIW28FABq4KWkWvhJTEi4fOmiWgwVBvl5BYAan9cG9ggpkJSYcOniBaFmaFAvBYAa6lVvOUeblJR48UK4nE6gO9kVAGqQvYJKzR97cbxSQ0Iw4ikA1CBeTQicUXLyo/Dz5wmcIKSmDAWAGspQmTIxHicnnw8Lo8xwYCCyKQDUkE03Ne2V8vhxWGiomg4ehv27AkCN35WA/0ugwJOUlLCQEAkMwYTKCgA1qFxd3MeW+uQJKZ4qiPvAwSG/AkANfjVgfRUF0lJTQ86dXcUIdlNdAaAG1SuM6/iepqWdO3sGV5fgjHwKADXIVzOZMx4cHIyJjsKWXyIjw0JDJVyCg4J8fbx9fbzNzUz36O7G1j/3X29PT0cHe/GLv5/v+Pi4zAOBjqpVAKihWv2VFz0vL1dLY11MTHRCfLz45UlKSlZmpoRLQUE+9m4USf5bVlba+Nvf3Tu3tWla5WVlyhs/RMJPAaAGfloS1RObzQ4LDdXdtZNQr0Ts7OzcuX1bcFAQi8UiqnKQl2gFgBqidaFM6+Dg4D49PV8f7+XlZaINamlpKTgoCN7wSrS6rJoPUGNViUhskJv78VtJZkYGkceAJfk0LY3ISUJu/AoANfjVoM768vJycFDQHt3dpHiBwNDQkMHBA8ePuWGvlaVOGSg6EqAGBQv77t07fb295Joy4HA4MdFROls2NzU1UbAk1BoSUINa9UQoJztbm6b1oqCAjAOre/Nm43rtyIjL8BRSIpcPqEHk6kiX2+Lioq+P98H9+4aGhqTrSSTrqakpO1sbSwtzAr6blkg6qTIXoIYq1ccxdldX145t28LPn2ez2Ti6VZWr+IcPaVqaJSV0VSUAccUoANQQIw5pdqU+eaKlsa6osJA0GUuQaFdX164d28k1OyPBsKhgAtQgdxUXFxeDg4IOGRxkMofJPRJR2WM3dOju3tXb2yNqP7SpRgGghmp0xyUq9q0kOChIha+Jx2Ug4p1g98KnPnki3gz2Kk0BoIbSpMY50JOUFC2NdfTiYpz9EtLd6OiouamJo4P99PQ0IRNUr6SAGuSr99zc3DE3VyPDQyNMJvmylzVjLpd753bsBm3t2trXsvqAfvgoANTAR0eleens7NyxbVtkxGUOh6O0oMQJVF9Xt2nDerihQ7UVAWqoVn/posc/fKhN06qsqJCuG7Wsp6enHR3szc1MR0dHqTUy0owGqEGaUgUFBtI0NT58+ECajBWWaG9vz5ofvo+JjlJYBHAsTgGghjh1CLVvdGTEzMTE2dFxRr1nBNPTn2pprHv54gWhqqNWyQA1yFRubEZwPY1WXV1NprxxypX3PA4Gg4GTS3AjiwJADVlUU22fxoaGLZs2qtuEaHd3N/bsL2rfnKLaQ0vC6EANCYUiltns7OzxY26GhwyGhyl4S6iw1pS8ZV54mGRpAWqQpVIi8szKzCT+o7pE5C1NE7VvmZdGCQLZAjUIVAwZUnn37t1+ff3jx9wWFhZk6E7wLl1dXdu3bv14yzwlfshLcLUlTw+oIblWBLVks9mREZe36mxpa2slaIoypaVWt8zLpJDKOgE1VCY9voHpdDpNUyMhPh5ftyrxNjc35+bqYmpsDPdxqUT/VYMCNVaViDQGo6OjFuZmDvZ2U1NTpElaKNHW1hadzZuu/PorPARQSBuiNAA1iFIJXPLg3dBRVVWFi0MlO3mSkkLT1IBHeClZdmnDATWkVYwE9k1NTaS7oWN2dtbV2dnEyGh0ZIQEEqt3ikANatYfu2Cpr7eXFLdRNjU1bd64AX7JSpZjEahBlkrJkufzrCwtjXUZGc9k6aysPgnx8do0LfW8R15ZGuMcB6iBs6BEczcwMHBgH0Fv6JiZmXF2dLS2spqYmCCabpCPGAWAGmLEocgu3g0dra0txBlSY0MDPF+HOOWQKhOghlRykdi4rKyUpqUZe+tWaWkJ/5Kfn5eVmSnh8uhRUkJ8vIRLTEx0THSUyOXc2TMb12vX19WRWFA1Th2ooUbF//Dhw5nTp3x9vCVcQs6dDQsNFVjsbG336ekJNIaFhkZduyoSECIbExMS4LnB5D3ygBrkrZ1qMs/IeBYcFKSa2BCVGAoANYhRB/JkAdQgT60UlSlQQ1HKUtUvUIOqlZV8XEANybUCy48KADXgOABqwDEgnQJADen0oqK1iqkRFhpK09KEhUQK/PD9d96enlT8LMCYJFVAxdTw9vTMyHg2BX/kUeDRo6SgwEBJjy+wo6ICKqaGl4dH4cuXVBSWsmOCbyiULa3EAwNqSCwVGP6mAFADDgSgBhwD0ikA1JBOLypaAzWoWFVFjgmooUh1yeFbxdTwdHcvKiwkh1SQ5W8KADXgQABqUPAYKCjIvxAerqDFwc5un56egpxHRkRQsB6UGxJQg3IlReikv1/ASf+kpETSLd9+/RUF60G5IQE1KFfS36iRk51NxoGt+eF7MqatbjkDNShY8ZP+fkANCtaVMEMCahCmFPglAtTAT0vwJEIBFVPDw/1EcVGRiLygSQ4FgBpyiAddV1cAqLG6RqSzAGqQrmTkShioQa56SZQtUEMimcBIVgWAGrIqR+B+QA0CF4cKqQE1qFBFgTEANQQEgU18FQBq4KsnIbwJU+N2bCz2LoKszMyVlRWBLOfn54eGhgYGBsrLymprX3d1dWEG3d3dly5e4Nlfj4np6ekR6Mu/WVpaMjQ0NMJkzszMVFdXizfm78hbh/s1eFIQeUXF1HA/cZxeXExkgciYmzA1Pr4mur+/s7Pz8qWLly5ewAbF4XCwlScpKenpT6enpxkMRlzc3RcFBVh7UWHhD999i72B9d27d99+/RXvghevL0JoZWWFy+UihBj9/TPT06dPBff09AwODvLew8hms3ky8hjE74G3F6jBk4LIK0ANIldHxtyEqbFfXx/zxeVyD+7fhxA6e+b0SX8/B3u79+/fu7q4HD1ypOLVq5s3bmDUuHH9elJSYlFhoZ+vz6ngYIRQTHSUl4dHcVFRY0ODna2Nt5fX3Tu3l5aW9unp+fn6HNy/r6enJyY6qrKiQnf3rrDQ0IcPHpSVlebm5jo62B8/5hYZEfHhw4eD+/f5+fqYm5qEhYSYm5mmpaYKjBCoISAIMTeBGsSsi1xZiaEGQkh3966uri4Lc7PS0pIb16+Hnz+PnWvU1NRc+fXXuLi7lhbmoSHnEEJFhYUxMdG2R61XVla8PDxiYqKLi4qOHjmS/fx5aWnJ9q1bZ2dnDxkcRAilP0179CgpMuJy3Zs32LnG7djY4qKihvp6Rn9/fn7ewf37RkdHD1taIIS8PDxaWlqYzGEP9xMC4wRqCAhCzE2gBjHrIldWYqgxNTV1YJ9+3Zs3NtbWWZmZz56l19TUCFAj/Px5w0MGCwsLGDVu3riRlJR4PSYGo4aR4aFnz9KzMjOfpKRMT0/b2doghHKysxPi44WpcSo4OCw0tKiwEKMGhonAgJOM/v7x8fETx48JjBOoISAIMTeBGsSsi1xZCVNjj+7uhPj4G9evGxkeKiosXFpaMjEyys/Pcz9xPCPjWV5ero+3V2lpCXau8aKgoKAgPzgoCKPG4ODgt19/NTQ0hFHj/r17oSHnMjMyjAwPLSwsCFPj8qWLsbduYecaJkZGBQX5MdFRu3fuGB0dBWrIVVfCdAZqEKYU+CUiTI03tbWlpSVVVVXj4+NYnNnZ2fz8vKamJoQQm82m0+lM5jCDwRgaGsJsampqPnz4MDAwgBDCXv4+MDCATXA2NjTk5+fNz8+vrKy0tbUihMbGxoaHh7HZ0JmZGTqdfj0mprysbHx8PDcnh9Hf39TUxGKxOjs6EEJdXV2Li4vs3zf5xw3nGvxqEHZdxdQ4cfwYnU4nrDokTUyYGkoeSEd7u8HBAzxCSR4dqCG5Viq0BGqoUHxFhVY5NWQeGFBDZumU2RGooUy1lRQLqKEkodU1DFCDgpUHalCwqEQaElCDSNXAKRc5qUEvLvby8Lh54wZ2xyd/UlWVlV4eHlevXOHd4snbW19X5+XhEXH5Ev+doLy9Eq7ANxQJhVKtGVBDtforJLq01JidnZ2ZnsZSWV5eNjMxWVlZufLrr/Ti4vn5+ampKWwXl8s1NjJks1h379zOysxcXFzk3TOOEDIxMlpaWkp5/DgpMUHmUQE1ZJZOmR1VTI3jx9zgGgru9ZaWGpUVFbzfnvT09IScO4sQqqmp+fWXX+rr6rIyM7EMR0dGfLy9EELtbW0h5852tLenPH6M7VpYWHBxckIIDQ4OYjayDQqoIZtuSu6lemqUlMCVV5yLLi01+MM31NdjP29rbGy8eCGcf1dXVxf2Nvne3p6ggAD+XSNMpvuJ49iNG8J3fPJbil8HaojXhyB7gRoEKQSeachDjREmE7uDMzcnJzHhk+8aMzMzDvZ2CKGystIb16/zZ8xms60OWyKEGhsaLl+6yL9LqnWghlRyqcoYqKEq5RUYV1pqlJTQs58/5yXk7eUVHXXNwtxsbGwM+5UKb9ep4OCrV65YWpgPDAy0tLQ8fPCAt+tCeHhkxOUjVod5j+fg7ZJ8BaghuVYqtARqqFB8RYWWlhr8s6HY8zK6urrm5+cRQvyzoQghLpfb3d09OzuLEBKYDUUI9fb2TP8+qyrb2IAasumm5F5ADSULroxw0lJDGTlJFgOoIZlOKrZSMTWOubnCbCjuhwBQA3dJwSG/AqqnRmlpCX9CsC6/AkAN+TUED2IUAGqIEYesu4AaZK0cSfIGapCkUNKkCdSQRi2wlVoBoIbUkhG/A1CD+DUidYZADVKXT3TyJ/39jrm5Rkddw325dvUK7j75HX7z1ZeihwStRFJAxdRwc3WB2VDcj4dX5eW3Y2NxXy5dvKi1bh3ubvkd3ouLw10NcIi7AqqnRllZKe6jAoeKUIDR379PT08RnsEnuRQAapCrXqrMFqihSvWJFBuoQaRqEDsXoAax66O87IAaytOa7JGAGmSvIF75AzXwUpL6fhj9/etpWoEBJ2EhuAKeHu51dXWKOyJVTA1XFxeYDVVcdfH1zOjv36qz5XlWFiwEV2D/Pv2c7Gx8q8/vTfXUKC8r408I1gmrAHxDIWxpBBJzcnSoqqwUaMRxE6iBo5gUdwXUIEuBgRpkqRT18wRqkKXGQA2yVIr6eQI1yFJjoAZZKqWyPJubm7MyM5Ww3Lt7d+P69UoIxB+CzWKpTFnSBqY6NZydYTZUzoMzMOCkpYV5UECAopcAf38vDw9FR+H3/81XX8r5IFI5tSVpd+pT41V5OUlrQ5C0AwNOPs/KIkgy+KaxacN6oIYMkgI1ZBBNvboANdSr3hKMFqghgUjqbQLUUO/6ixg9UEOEKNDErwBQg18NWEcIATXgMFhFAaDGKgKp326ghvrVXMoRAzWkFIz65hSnhouTU8WrV9QvoyJHKAk1Uh4/ToiPz8rMHBoaEs6lsqJiYWFBuH3Vlob6epEdiwoLBfpyudz5+fmhoaGO9vaWlpYRJlPAQOQmXEMRKcuqjUCNVSVSdwNJqLFVZ0tWZuaTlBQzE5PioiIByTzd3UdHRgQaV90sfPnym6++FNnxsKWFQPekpMSXL14wGIzGhoaoa1cl/G0VUENARgk3gRoSCqW+ZpJQY7++PibQ+Pg49pGOjrrm7+d77uwZNouFUSM/P8/Lw8PZ0bGmpubRo6S2tlaE0LWrV+bm5rC+YSEhvLsnFhcXr1654ubqwk+N1tYWLw+PM6dPmRgZIYTu3rnt5+sTHBS0uLhobWXlYG9X9+ZNbk4ORg3sBlDxZQNqiNfnc3uBGp9TBtr/q4BU1EAI7d2j21Bff9Lfb2pq6tbNm2mpqRg1HicnczgcOp3u7eXV1NR05vSpxcVFB3s7ntBzc3NcLpe3iRASOElxdLCfmpoaHx8/uH9fd3f38WNuU1NTiQkJ9+/duxcX9/LFi+Kioju3Y6OuXT0VHBwUECDgjd8ztg7UENZEkhaghiQqqbWNVNSYmJgwMjyUmZFhbmoSFhoaFhpaWlqCffhDzp318vC4eCHc/cRxhJCFudnTtLT0p2lixBWgBu+Lia3NUXpxseEhAyzEi4ICAWq4urjY2hwV4xnbBdRYVSKRBkANkbJA4/8pIAk1du/c0djYSKfTbayt8/JyGQyG1WHLESbzQnh4eVmZp7s7kzm8c/u2ycnJmzduuDo7I4Rux8bu2rF9cXGRF6mqsnJ5eZm3KXyucfbMaTqdXllRoa+3d3R01NzUZHh4+NrVK/n5eUlJiXduxxYVFmLnGlWVldeuXnn0KInfm/A6UENYE0laKE4NZ0fHyooKSYQAm88pIAk17tyOjYmOunvndlNTE+anvq7u0sULz56lI4QKX76cn58vKaFfunihtvZ1ZkYGQqizo8PXx5s/aEbGM4ErJlhHns3y8nJc3N3k5Ed5ebkIodbWlsuXLj5JSeFyuR8+fIi6drWzo6OxoeFNbe3Q0BCbxUpKTOD1FbkC1BApy6qNQI1VJVJ3A0moIa1GLS0thy0tOjs7pe2Irz1QQzY9gRqy6aZGvRRBjcXFxfHxcZWLCNSQrQRADdl0U6NegQEnw0JC8vJyqbes/XEN71qvGlVU7qECNeSWkOoOnj1L9/XxVsLi6uJM09JUQiD+EPzTsVSvJG7jA2rgJiU4klMBeG6onAIqrTvFqaHo4SmtTuoQCKhBlior+mOl4vehKHp4ZCkzKfIEapCiTNR/vgZQgywHIkIIqEGWYin6YwXnGmQ5ElSfJ1BD9TWQLAOghmQ6gZXiFQBqKF5jfCIANfDREbzIrwBQQ34NleOB4tRwdLCvqqpSjpQQRU4FgBpyCqi07kANpUkNgVZRAKixikCE2Q3UIEwp1D4RoAZZDgGgBlkqpbI86XR6UmKCEpboa1e1tbSUEEgghISPJlZZAYgXGKhBvJoQLCOrw5bYM7guXghX6HIh/HzIubMKDSHsXGfLZngTsLRHHFBDWsXUzt7qsGVjQwNVh+3i5ATUkLa4FKeGg71ddXW1tKKAPb8CQA1+NWCd+neUAzXkP8qBGvJrSDEPcK5BsYLiPxygBv6aktwjUIPkBVR8+oqjxuzsLJvNVvwI0MrKCpvFEhkI5jVEyiK+EaghXh/Yi0RSY2Vl5ftvv3F0sLc6bOlgbzc5OSmg1LNn6QwGIzMjo6qqytvLa3h4mN+Aw+G4ubp4urvb2dpEXbvKvwshNDoykpz8SKBR5s2VlRU/X5+c7GyRHoAaImUR3wjUEK8P7P0sNQwO7MfUycvLDTl3FiHU2Nh44/r1xoaGpaUlU2Pj2Fu3Ojs6BgcHMWq8ffuWdy2mu7vb29MT6x4ZcRkhNMJk3r1z+8H9+7Ozs0mJCRbmZu/evSsvK0MI9fb29Pb2sNnsp2lpN65fx55sXlpa8jg5GXufG3+R7O1s+TcRQj7eXrY2R4EaArLIs0lxatjb2dbU1MgjEPT93LkGjxosFsvI8NDbt2+dHR0Z/f2ODvadnZ1eHh4Vr17Fxd19UVDg7eVFLy52dLDnvdKVw+G4nzh+yODgjevXsZusPNxPtLa2JMTHR1y+9Kq83N/Pd4TJdHVxQQilpaampaYmJiSkPH7c2dGBvVN2zX9+eFNbGxpyLj39KVajoaGhhPj43Tt3JMTHv379f0Vns9mJCQlADRyPZKAGjmJS09Wq1JicnDQzMbl/756psbGvj7e1ldWzZ+lnz5zu6uriUWPjeu201FSeQEtLS4uLi5OTk+npT3V371pcXCwpoQec9HdzdQkKDGxtbQk/f35qaoqfGoODg6Eh5wJO+m/bqoMQMjU2RgjRi4tvx8ZibicmJkpLSwwO7C8tLenu7ubFQggBNfjVkH8dqCG/hhT3sCo1rl65EnvrVk529o3r1xFCJSX0np6ekHNn3759y6NGf1+fkeGh0dFRTKyc7OzTp4IRQlwu1/ao9cDAgN7ePYuLi3Q63d/Pt6O9PSw0dH5+3uqwJULoyq+/pqWm2h617uzsXFpa0tm8CXtN7Edq0Omxt27xFyDgpD//JrYO1BDWRJ4WoIY86qlF389R48A+fUcH+yNWhyMjLnN++wsKDPTx9vJ0d19cXMzNzXV1dsZmQ6/8+uvY2FhDff2vv/yCSbayshJ+/vzRI0dsrK0TExK4XK6nu3tgwMnIiMthoaEzMzMW5mbNzc3BQUHuJ44HBwUVFRY+Tk52dXE5d/aMm6sLm8UKCghACL2prRX/fmksXG5u7uduAIXZUBkOYqCGDKKpVxeR1KCMBEANGUoJ1JBBNPXqAtRQr3pLMFqKU8PO1oZ/Ol0CQcBEUIt0r8UAACAASURBVAGghqAiar8N1FD7Q2A1AYAaqymkdvuBGmpXcmkHbHXY8pfIyCcpKZRc9PX2fm6iVFqh1MceqKE+tZZxpMnJj0JDzilhOXPm9IljbkoIJBCiv69PRmnUtRtQQ10rT7xxw3NDiVcT0RkBNUTrAq3KVwCooXzNZYtIcWrY2hyFayiyHRnK7wXUUL7mskWkPjVqa1/LJg30UrICQA0lCy5zOKCGzNJBR5wVAGrgLKjC3AE1FCYtOJZSAaCGlIKpzByooTLpIbCAAkANAUEIuwnUIGxp1C4xoAZZSk51ahy1htlQshyLQA2yVIr61HhTW0uWYqh5nkANshwAQA2yVIr6eQI1yFJjoAZZKkX9PIEaZKkxUIMslaJ+nkANstQYqEGWSlE/z/a2Nt1du6g/TvKPkOLUsLG2htlQUhyl79+/375VZ+2aNc3NzaRIWJ2TpD416t68UecCk2Ls7W1t62m09KdpdW/e0DQ1CgrySZG22iYJ1FDb0hNl4HQ6naapUVVVhSXEYDC26myJu3uHKPlBHkIKADWEJIEGJSqQmJCweeOGnp4e/phTU1OGhwyCg4I4HA5/O6wTRAGgBkEKoXZpcLncyIjL+/X1P3z4IDx4Fot1/Jib7VHrhYUF4b3QoloFgBqq1V9Noy8tLTk7Ojo62C8tLX1OAgwrO7dve//+/edsoF0lClCcGkePHIHZUJUcWGKCjo+PH9inHxwUxOVyxZhhuzIynmnTtFpaWla1BAOlKUB9atTX1SlNTQi0qgKdHR3rabT4hw9XteQZ1NTU0DQ1igoLeS2woloFgBqq1V+9opeXldE0NWR4/0hfX++WTRsfPnigXnoRdbRADaJWhnJ5PU5O3rhe++3bt7KNbGJi4uD+fcFBQSsrK7J5gF54KQDUwEtJ8PNZBbB5Tb29e0ZHRz9rJMGO5eVlFycnB3u7xcVFCczBRFEKADUUpSz4xRRYXl4+5uZqa3MUl2uoGID26emJvF4LmitHAYpTw9rKCmZDlXMkiYwyOTl5yOAg7l8rkpISN21Y393dLTIoNCpaAepTo6G+XtEign+RCjD6+3W2bL4XFydyr5yNJSUf70OvrKiQ0w90l0EBoIYMokGX1RV4U1tL09R4UVCwuqmsFu1tbRu0tZ+mpcnqAPrJqABQQ0bhoJsYBZ5nZWnTtJqamsTY4LJrhMnU3b0rMuIyLt7AiYQKADUkFArMJFXgzu3YHdu2DQ4OStpBPrv5+XlrKysP9xNsFks+T9BbUgWAGpIqBXarKsBms/39fM1NTWZmZlY1xtGAw+EEBQSYGBlNT0/j6BZcfU4BoMbnlIF26RSYnZ09bGnh7eWlqn/z79yO3bZV5927d9LlDdbSK0BxahyxOtzY0CC9LNBDOgWGh4d37diu8vmF3NxcmpYmXDWTrnjSWwM1pNcMenyqQGtrizZN69mz9E+bVbPVUF+vue7nzIwM1YRXj6hADfWos8JGWVxURNPUqK6uVlgEqR2/f/+eCCc+UudNng5ADfLUiniZ3rkdu2nD+t7eT57fR4Q0Z2dnLS3Mfby92Gw2EfKhWA5ADYoVVEnD4XA4wUFBxkaGhL1swWaz/Xx9zM1MlXxBR0kFUGkYoIZK5Sdn8Pn5+aNHjrifOM4i/C0Sd27H7ty+bWhoiJxKEzRrilPD6rBlY2MjQbUnZ1q82zEleX4fEYaYlZmpTdOClzPhWAugBo5iUt9VR3v7Bm3ttNRUcg21tvY1TVPj5YsX5EqbsNkCNQhbGsIlVlpaQtPUqHj1inCZSZBQf1+fzuZN9+/dk8AWTFZRAKixikCwG1Pg0aOkTRvWd3V1kVeQyclJg4MHcH/YB3kFkTlzoIbM0qlLR+zxWfp6e8fGxsg+5uXlZVcXFztbG1weLEZ2NWTOH6ghs3Rq0RH7mNnb2fIe1ZmUlGhmYmJjbX3E6jC9uFhAhXfv3v0SGSnQKLy5sLDg7enp7Ohoe9Ra+Abwnp6e2trXwr0kb0lKSsRuDx1hMl1dXNxcXd7U1iKEQs6d9fH20tm8adfOHRSAoOSC4GtJcWoctrRQwlMe8C0JcbxNTEwYHNgvcEp/88aNnOxshND8/Ly+3l7s+Z01NTUlJfSVlZXe3p7goCCEUE9PT25uLoPBWFhY6OzoQAixWCxsBSGUk519OzYWITQzPX0qOBghNDk5mZ+fh322IyMiws+fHxsbw36K1tfXOzc3t7KyUl5W9vLFi8XFxfn5+b6+XnpxcUd7O0JocHCQyRzm6RYZEWFw8EBSYgKGiaampuXlZUsL8xEmMzIiAiFUXFRkZ2uzacN6mR+YzoulnitADfWsu0SjNjI85OriImDKowZC6NrVK0WFhVevXLlx/Xpy8qOT/n4YNWprX7u6uBQVFu7asX12dtbI8BBCKDcnB/skI4Tev3+/d4/u6VPBr8rLV1ZW2CyWsZFhQUG+q4tL4cuXGDXKykqjrl1FCJ0PC2ttbQkKCEiIj39w/76Xh0dnZ+e2rTrPs7IMDxn09/VVV1fz/0ZxcnLyeVYWFuvokSPYK6bNTU2wgbDZbFcXl8aGhqtXrnzz9Zdff/nvb776ctXlh+++pWlp4r7o7tqJ+2J4yMDU2BjfxdrKytHBnrf8+MP3Cn2p1f8TOOaUvAnnGvIIPjoyskd3d2TEZf5bM/ip8UtkZH5+3q4d28NCQ8NCQ2lamhg12Gx2RsazsJCQLZs2MpnD4efP19fVubq48N+myeFwXpWXnwoOxsBUU1Pz6y+/WFqYJ8THp6WmPk1Lq6qs5KfG8PDw3Tu3g4OCzE1NOjs7gwICEELXY2JKS0uEx8ijhrmZKZb8YUsLbCUyIiI3J0cRN3HMz89P4f03NjbG6O/HfWlqamqU48/U1ET4y6lwFWRuAWrILB0hOs7Pz9tYWzs7OvJe48yjBpvNPrh/3+jIiJHhodHR0ampqbTUVIwasbduxURHzczMWFtZDQ0N9fT0eHt5ebq784YUGRFR+PIltnnI4GB3dzdmiZ1NPE1Le5qW9vp1TcTlSwghLw+P1taWQwYHGxsaxsbGTIyMOjs7z509gxC6eeNGSQmd55a3wqOGv58vg8HgcrnmZqbY3icpKbdjb8ENozytZFiBbygyiKZeXTgcTlho6IF9+uPj4wihe3FxhwwOOtjbmZmYYL+OL3z50s7WxsXJKSYmmtHfHxYaWlCQb25mevbMaWMjQ2zqweDAfv6P9wiTaW5mamdrY2lhnpSUODY2dmCf/tkzp91PHL9540Z9XZ2+3l5Gf7/Bgf0ff0tiatLR3n7MzTXgpH9wUNDRI0e6u7svXbyAJVPx6lV6+tOCgnz+quTn56U+eYIQwnjk7OiY/vTjQ4nZbPbmTRuNjQz5z3r4O8K6JAoANSRRCWxQQnz85o0bPvfzVi6XK/AIL/7NmelpO1sb4Tct8tt8/EiL+lUL/49WRRpIUhus4+zsrIW5ma+PN79PSbqDjYACFKeGpYU5/ABBoOQyb8r8KI3QkHMqfwAHg8HQ2bJZ5U8bk1l8QnUEahCqHERPpq2tdT2NRpDHdkkuVn1dHU1LMy8vV/IuYClGAWdHR4W+v0rFs6FwriGm9rLtGh4e3r1zB4n+0c7NyaFpafJfmpVt4NCLpwBQgycFrEiqwNzcnGofRy5poghhDy4fGBiQvAtYrqoAUGNVicBAhAJsNvukv5+ZickMUV9BAi9JEVE2nJqAGjgJqZZu7tyO3b51q9Jesya5xnNzc0esDnu6u8t82UXyWGpoSXFqWJibtbS0qGFdlTbk7OfPtWlahHpgGpM5rLtrJ4lmXpRWLLwCuTg5KfQxKyqeDQVq4HWgiPGDvT5e4D4rMfYK3QUvmleovJhzoIYSRKZ+CEZ/v86WzXFxd1U7VDqdTtPUqKqsVG0alI8O1KB8iZU0wMnJyUMGBwV+Vq+k2L+FSUpM2LRhfXd3tzKDqmcsoIZ61l0ho2axWMfcXG1tjir5SVnY08b26elhD/tQyNjAKZ8Crs7Or8rL+RpwXoV5DZwFJbg77AO8d4/u6OioclJdWlpycXJysLfjPW1MOXHVOQrFqWFuZtraCtdQlH2EP05O3rheu7OzU9GBJyYmDu7fp8KvRYoeIDH9AzWIWRfSZ1VeVrZu7U/FRUWKG0lfX++WTRsfPniguBDgWaQCQA2RskAjDgr09vZs2bQx/uFDHHwJuaipqaFpaij0OXRCMaHhvwoANeBQUKAC4+PjB/bp4/4NIuXxY5qmBty/p8DKiXXt6uJSXlYm1kSunSqeDYV5Dbmqh0dnbLbS0cEel9nK/5ttHRnBIzvwIYsCQA1ZVIM+UimAfdT36+vLeWWUxWIdP+Zme9RayVd2pRqsOhhTnRqmJm1trepQSOKPMSkxYfPGDTLfhTU1NWV4yAD3LzvE142AGQI1CFgUyqYk8x3f/71j/e4dykpDqoG5ubqUlZUqLmVVz2vAuYbiaiuT5/a2tvU0GvbEcAkdfPx1nJYmQX4dJ2HO1DYDalC7vkQcnVS/ZM9+/vzj8/saG4k4EnXNCaihrpVX6bglfGoOYZ/6o1LxVB8cqKH6GqhnBhwOJzDgpKmxschnCHI4nICT/kR+wqB6Vg0bNcWpYWYC11AIfXiLfBrw3Nyc1WFLb09PeH4fMYt3zM1V5Ot18cpWxbOhZiYm7W1teA0G/ChCAYE3DzCZJHtzgiI0IbhPoAbBC6QW6fHecoS9pSk9/alaDJu0gwRqkLZ01EocuyPjpzVr3tTWUmtkFBwNUIOCRSXpkN6/f7/u57UkTV6t0gZqqFW5CT3Yubk5bZoWoVOE5H5T4Pgxt5ISuuLEUPFsqKmxMcyGKq66+HoGauCrp+K8UZ8aHe3tipMPPOOoAFADRzEV6gqooVB5wbkUCgA1pBBLpaZADZXKD8H5FABq8IlB6NUTx4/R6ZSe14BvKIQ+APmSA2rwiUHoVaAGocujVskBNchSbopTw8TICM41yHIsAjXIUinqU6Ozo4MsxVDzPIEaZDkAgBpkqRT18wRqkKXG7ieO04uLFZetiu/yMjEygnMNxVUXX89ADXz1VJw3oIbitAXP0ikA1JBOL9VZAzVUpz1E/lQBoManehB3i+LUMDYyhG8osh19mRkZMTHRylx+/fXX77/9VmkRmcxh2ZSBXh7uJxT63m8Vz2t8pEZnJ5RZBgVMjIxCQ87dunmTksu2rTqvX9fIIAt0QQgBNeAwEK0AtW91sbU5CtQQXXgJWoEaEoikliZADbUsu0SDBmpIJJMaGgE11LDoEg4ZqCGhUGpnBtRQu5JLPGBPd/eiwkKJzaU2hNlQqSUjSAeR1OByuVO//S0sLIjJc2lpic1izc/Pc7lcYbOBgQGRb04StpSzRUwUmNeQR1uKU8PI8NDbt2/lEUht+4qkxsLCwtof1/j6eDvY21kdthwfHxfQ58H9+0NDQ8+zspqamo65uU5MTPAbLC8vHz1y5OyZ064uLjHRUfy7EELv3r1LiI8XaJRtc2VlxcnR4dzZM8fcXEWSC6ghm7BYL6CGPOpRue/nqGFmYoINOz8/Lyw0FCFUUkK/EB5eWVExOzurr7f3ekxMQ339u3fvMGq8qa1tqK/HurS2tvh4e2HrsbduIYR6enoiLl+KunZ1enr6ekyMqbFxT08Pdvbb1tba3d29sLBwOzb24oXwpqamlZWV3JycG9ev37kdy3st2/DwcFZmJra0tbVizmtrX/8SGYkQioy4LPJaCVADE0q2/wI1ZNON+r1Wpcbc3Jy5qUl9XZ23p+f09LSLk9Pbt2+9PT072ttv3rhRWlpyzM01NzfXw/0E7xOOvb1Vb++eSxcvDAwMIIT8/XyHh4efpKT8+ssvFa9ehYWGDg0NeXl4IISSEhOeZ2XFP3xYXFT0/v37g/v3sVmstT+u6evrDT9/PjMjA6uBSGo8TUt7mpaGEHqSkpKWmipcLaCGsCaStwA1JNdKvSxXpcbQ0JCNtfWtmzctzM18fbztbG1eFBQEnPR/9+4djxo6WzanPnnCE256enpmZmZxcfHlixe6u3YuLS09e5bu7eXl7OgYcu5s3Zs3kRGXR5hMT3d3HjU6Ozr8/XwDTvrv3L6NzWJZHbZECOXn5z188ABz29LS4uvjjS052dlY47Nn6SmPH390kpSYm5PDS4C3AtTgSSHDipeHR+HLlzJ0lLCLimdDYV5DwjoJm4mnBpvFOhUcnPL48fOsrBvXryOEMjMyent7ggIDGf39PGqMjowYGxmOMJmY/+dZWYEBJ7lcLpvNNjc1GRwcNDiwn8vlZmZknAoObmxouHzp4tTUlLWVFULo3Nkzz7OyzExMRpjM6enpLZs2slmso0eOYNR4cP8+5pPNYmETtFNTU4uLi1hjV1dXUEAAQsjP16e7u1t4dEANYU0kbwFqSK6VelmKpMby8rKlhbmjg72NtfX9e/cQQisrK2Ghod5eXmfPnGaz2QUF+d6enthsaHTUtZmZmaamJmwKAyHE5XKjrl21sba2tTmam5vL5XKDAgKCAgKux8REXbs6Mz1ta3O0s6MjLDTUw/3EhfDwqqqq9PSnJ44fuxAeHhQQsLy8fPnSRYRQbe3rgoJ88fWIiYn28vAQnnPFegE1xKsnfi/FqWF4yKCrq0u8BLBXpAIiqSHSkoyNQA15qgbUkEc9KvcFalC5uvKNzdvT8+WLF/L5ENdbxfMacK4hrjhi9wE1xMqj1juBGmpdfjGDB2qIEUfNdwE11PwA+OzwTYyMzoeF3bkdS8ll+9atIu/++qwcsINPAaAGnxiwyqfAs2fpUdeuKnn59usvr175VTlBh4fhWV589ZZmleLUOGRwUOTlemkkAlvlKbD2xzVsNlt58SCSTAp4e3m9KCiQqatEnVQ8GwrUkKhKhDECahCmFOISAWqIUwf2KVkBoIaSBZctHFBDNt2gl0IUAGooRFa8nQI18FYU/MmhAFBDDvGU1xWooTytIdKqCgA1VpWICAY+3l6r/g5InjxVPBtqcPBAT0+PPAOAvspUAKihTLVljgXUkFk66Ii/AkAN/DVVgEeghgJEBZeyKgDUkFU5pfYDaihVbggmXgGghnh9CLLX18c7Pz9PccnAvIbitKWgZ6AGKYoK1CBFmdQlSaAGKSpNdWoc2N/bC9dQpD4UP3z4sH3rVuUv3337rXKCYo8mlVoX6PCbAkANOBBEKMBkDm/bqjNK0T9Gf/96Gk3EsKFJMgWAGpLppGZWTObwrh3bqTro2dlZoIY8xfXz9cnLy5XHg/i+qp4NhW8o4uvzmb1Ajc8IA80fFQBqwHEgQgGghghRoOl3BYAavysB/+dTAKjBJwasCipAcWoc3L+vr69XcNCwvZoCwtRITEiIiY66FxdXX1cn3JvD4UxOTg4MDNTX1WGvhua34XA4MdFRMdFRcXF3hbuPj4+/Ki/nt8fe5CbQItvm3NycsHOY15BNTF4vfz/f3FzqzmsANXiVlmpFmBp7dHeXlpYUvnx5zM2V945Vns9Hj5JysrOZzOHW1pabN26UlNB5uxBCLBZrx7ZtpaUlpaUlxkaGvFfMYzadHR0h587y2yOELMzNBFpW3Wxrax0dHeU3GxwcNDc1OX0qmL8RIQTUEBBE2k2ghrSKqYW9MDX26+tjI2exWAYHDyCEoq5d9fH28vLwmJ6ePmxpYWZiUllRkZiQgFEjOfkRDy4sFsvI8BDW/dbNm09SUry9vLDng3q6u2PUyMvLxablT58KnpmeNjh4wN/P18LcrLq6enp62tPd3dfH29XZmcPhnPT3O30q2OqwpcALim9cv15b+5q/PLk5OcVFRUANfk1wWQdq4CIj1ZyIoQZCaO8e3e7ubidHB0Z/P/bNJTEhISc7u7ys7HpMzM0bN04cP8b/WWWxWP/5/jtHB3s7W5sjVodnZmasrazYLBZCyNLCHKNGWmpqWmoqQsjVxWVqamrvHt25uTkGg3HS34/R39/c3DwwMGBqbMxgMAwPGUxMTIyNjTk5OmC6Ly8vOzrYb9+61djIMCwkhL8YXV1d/Jlgu+Bcg18iGdaBGjKIRv0uYqgxNze3T0+v4tUrU2NjbLaCTqcLUMPP18fczJTD4WBK8Z9rYC3WVlbLy8tsFsvczBSjxtO0tCcpKQghB3u7qakp7BvK2NiY+4njjQ0NVoctr129Ymps3NfXa2lhjhBaXFy0tTnKXwnhcw2EEFCDXyK81oEaeClJKT/C1NDdtTMrMzP9adrRI0cyMzJmpqcNDxm0tLSEnDublZn5NC3t4oVwOp2OnWuUlNDjHz68HhODiSJMDT9fn8yMjPv37h22tMCo8aq83MP9RHV1tea6nwWocevmzZiY6Obm5vU0Wkd7++eoUV9Xx2QKvuIEqKGI4/Kkv19uTo4iPGM+VXyX14F9+v19fYobHlU9C1MjMyMjIT4+9ckT3vtlBgYG7t65jf1iem5uLikxoaenp7W1pa2tdXh4mMvlPnuWzuVyEUIrKysCr8+Ynp6+f+9eTU3Nq/LyqampN7W1CKGc7OyUx4+rKiuXl5eLCguxE4qKV68WFxcT4uOfpqVh31OwXWw2m07/ZM5VZC2mp6cFJjtgNlSkUFI1AjWkkktdjIWpQaWRw7yGnNUEasgpIDW7AzWoWVecRgXUwElIarkBalCrnjiPBqiBs6DUcAfUoEYdFTSKgJP+OdnZCnKOEILZUMVpq0DPTObwP//+xR7d3cpcdm7fprN5kxIi6u7aCb+Ul+fooTg19uvrM/r75RFIPftyOJxBpf89epTk7OSknLAjTKZ6VhaXUQM1cJERnOCgQEFBvreXFw6OwIWCFQBqKFhgcC+xAkANiaVSsWFgwMns588Vl4SK5zXgG4riSou7Z6AG7pIqyCFQQ0HCglupFQBqSC2ZijoANVQkPIQVUgCoISQJQRsoTo19enpwDYWgh55QWkANIUkI2qAG1GAwCKo9pPWpAkCNT/Ug7lZQQMDzrCzF5afi2dCP5xpADcWVF1fPQA1c5VSgM6CGAsUF11IpANSQSi4VGgM1VCg+hP5EAaDGJ3IQeAOoQeDiqFlqeXm5To6OajZoUg43KDAwKzNTcamreF5DX28vzGsorro4ep6bmzMzNfnu668keUIXjnHBlQwKUJ8a7969k0EX6KJMBZjMYd1dOyMjLvf19eps3nT/3j1lRodY0ioA1JBWMbDHWYH2trYN2tpP09IwvxMTEwYH9gcHBa2srOAcCdzhpABQAychwY1MCpSU0GmaGlWVlfy9l5eXXV1c7O1sFxcX+dthnSAKADUIUgh1TCMpMWHzxg28h57zS8DlciMjLuvr7R0bG+Nvh3UiKBAcFJSZkaG4TFQ/GwrzGoqrrsyeMSjs09P78OGDGCePHiVt2rC+q6tLjA3sUr4CFKeG3t49QA3lH1XiIy4vL7s4OTnY20nyBaS0tISmqVHx6pV4n7BXmQpQnxoDAwPKFBRiiVdgYmLi4P59Uk12drS3b9DWTn3yRLxn2Ks0BYAaSpMaAqG+vt4tmzby3jUvuSIjTOYe3d2REZexl7lJ3hEsFaEAUEMRqoJPEQrU1NTQNDWw9y2K2L1a0/z8/NEjR9xPHGf99jL61cxhvwIVOBUcnJHxTHEBVDwbqrd3D3xDUVx1Jfec8vgxTVOjpaVF8i7ClhwOJzgo6MA+/fHxceG90KI0BYAaSpNaTQNhl0v27tEdHRnBRYKE+PjNGzf09vbg4g2cyKAAUEMG0aCLpAqwWKzjx9xsj1ovLCxI2kcCu+KiIpqmRnV1tQS2YIK/AhSnxt49uoODg/jLBh4lUGBqasrwkIFUl0sk8Ppfk7a21vU02rNn6ZJ3AUu8FDh9Klihyqt4XgOogdeBIq0fRn+/zpbNcXF3pe0ouf3w8PDunTsiIy5L3gUscVEAqIGLjODkEwXe1NbStDQLCvI/aVXAxtzc3GFLC28vLzZcWFGAvJ9zCdT4nDLQLqMCWZmZ2jSt5uZmGftL2Y3NYnl7eVlamM/OzkrZFcxlVACoIaNw0E2kAndux+7Ytk35c0mqiitSBMo3AjUoX2IlDZDD4QSc9DczMZmZnlZSyE/DZD9/rk3Tamxs/LQZtvBX4MzpU+npT/H3+7tHFc+G7tHdPTQ09Hsy8H9FKTA3N2d12NLb01O18wsf51M0NZQwn6IoHUniF6hBkkIROE1CXctQwrUbApdCSakBNZQkNFXDEPC+iampqUMGBxV0nwhV6yjVuIAaUskFxp8oQC8uJuY9miwW65ibq63NUXzvSf1k8Gq8AdRQ4+LLN3SC/x7k/37/Mjoq30Cht6ACZ8+cTn/636dDC+7DYxtmQ/FQkWA+OBxOWGgoKX57mvL48cb12p2dnQSTkNzpUJwaurt3vX//ntwlIlj28/PzNtbWzo6OS0tLBEtNdDrlZWXr1v5UXFQkeje0Sq8AUEN6zdS4x+jICBmfqdXb27Nl08b4hw/VuHR4Dh2ogaea1PbV2dFB3ud3TkxMHNinDxdWcDlEz509w3vrFS4OBZyoeF4DvqEI1EPmzbKyUrI/K3xpacnFycnRwV6SZ6PLLJQ6dARqqEOV5R1jcvKjTRvWv337FnM0PT2dlZmZlZlZXFQk8hNYVVUlScjx8fG01NSszEyRN6GL9CyJW4QQl8t9VV5eVlaKPZ34TW1tQnx8b28PdmFlv76++PewSBhFbc2AGmpbeokGjn3MBN6B1tzcbGFulpmREXvr1j49vVGhS5uWFuareudwOKbGxvn5eenpT40MDwnYj4+P+/v5CjRKvnn50sXYW7ciIyJib92qqqpydXFpbGw0MTIaYTIRQmLe+SZ5CHW2pDo1du0cHh5W5wLLM3bsfat2tjYC/+w3NzcHBQRgnp89S79548b8/PzpU8G+Pt7JyY8QQhg1YmKifX28Txw/NjExce7sGTabzeVyL14IxzrOzMzo7d3DYDAQQjU1NWwWq7S0qWtMQAAAIABJREFUxMvDw9XFpaqqKjn50fatW9vb2sLPn0cINTY2Zj9/Pjoy4ufr4+3lFR11DSEUGnLuVHCwo4N9f18fg8GIiY7iDdbC3Kynp6e5uXliYuLdu3fYI0t9vL14l2DpdBHvl+V1V8+V6enpKcn+amqq29raFKeSquc1gBpy1NbP12fvHl3hd7vzU6OpqcnfzzcmJvpFQQFCyNnRkckctrQwX1xcTH3yhMPhRFy+lJHxLDrqGr24uLq6GvvAY0mVlZUePXLk4P59SUmJCKFHj5LYLNab2lo3V5cRJtPb0xMhZGFuhhCi0+mxt25VV1d3dnTMzs7u2rEdIbRVZ8vi4mJJCT0yIoLD4czPz2Nu5+bmfv7px+sxMX6+PrzrJg8fPBB46ldWZuYXf/2zxrqfaVqan1s0fl77zVdfEmTR+Hnt5/JUfvumDevlOLJW6QrUWEUgIu+em5s7YnXYy8ND4Jes/NTIfv78119+8fH28vXxDgsNDQsNfffuHfaMHFcXFz9fH2dHx7TUVCZz2MP9xEl/P97tM4z+fuxFB0tLSzbW1p0dHZEREe4njoefP+/k6MCjhrmZKUKo8OXL2Fu3ysvKHOztQkPObdm0kQeU5uZm7HyEpySbzd6np4cQ4nA4hy0tsHbMD8+mtvY1TVPj5YsXvBZYkVyBrMzMoMBAye2ltQRqSKsYsew5HE5gwElTY2P+Ccvm5mYnR4fGxsaXL17s09MbGBhITn509cqV8fFxV2fnqakpSwvzqspKH2+v2dlZRwf7R4+SEEKuLi7H3Fx5w2P09+vt3VNb+7qtrdXU2HhsbGzn9m2zs7MJ8fG2R60nJyePHjkyNzenr7f3/fv3QQEBsbduebq7V1dXd3V1ffv1VxwOB/sehFFjZnq6vq6O59zezra9ra2osPDypYsIoZWVlby8XN7e51lZynzaGC8uZVaAGpQppQIHcud27PatW3nvoxodHY2JjoqJjoqLu4s1crnctNTUc2fPYG8byMrMXFlZuXM79kJ4eHV1dU1NDUIo7u4dgUe5tLa2XLt65dLFCx3t7Qih4qKikHNnS0tLMjMyuFxu3N07jQ0NVVVV58PC6HR6Q339wMBAWEjIg/v38/PzZmZmsjIzEUKjo6OVFRUfPnzAviJhKkxOTkZGRNy5HYudJXE4nCcpKdgu7Klf8NQVeQ4XoIY86qlR39ycHJqWZmNDg2xjzs3JOWxpodqXLbLZbH8/X3Mz05mZGdlGAb0wBShOjd07dzCZcA0Fn6O9vq6OpqWZn58ng7vRkRHVPg14dnbW0sLcx9uLzWbLkD904VfgeVYW7yIafzte6yqe1wBq4FVIzA+Dwdiqs+Xundv4ulW0t+Hh4V07tgtcQ1F0UAr7B2pQuLgKGdrU1JSR4SFfH2+y/KPdUF+vue5nhb4DXSFCE9gpUIPAxSFqaiwW68TxYxbmZqr90iGJPLm5uTQtzYb6ekmMwUZCBYAaEgoFZoIK3Lkdu3P7Nt79F4K7CbB953bstq067969I0AulEoBqEGpcip5MJkZGdo0LexmLSWHFh+Ow+EEBQaaGBlNq+jlLOLTI/ve7OfPAwNOKm4UKp4N3bVjO/aDJcWNUM09v35dQ9PUKHz5kjg6zM/PW1tZebifELillTgZkj0ToAbZK6j6/Pv6enU2b3pw/77qU0FohMnU3b0LLpcotBZADYXKqy7OJyYmDA7sV/mTsjra2zdoa6elpqqL7ioaJ1BDRcJTLuzHn9U7O9vb2Qr8rF5pAy0p+fjj98qKCqVFVNtAOdnZASf9FTd8mNdQnLaE8yzyET7KyTIpKXHThvVdXV3KCafmUYAaan4A4D/8R4+SlPkBxlC1T09vbGwM/8GAR1EKUJwaO7dvw57jJGrs0KYoBUpLS5TzZQH7WuRgb6eqr0WKUpDYfoEaxK4PabNTwsTkxMTEwf37VD4FS9oSyZ44UEN27aCneAV4F0GxB4WLN5Z2b19f75ZNGx8+eCBtR7CXX4HcnJyT/n7y+/mcBxXPhsI3lM8VRjnt8/PzR48c8XA/ge+TNWpqPt5aVlRYqJxRQBQBBYAaAoLAJs4KYDd3GxsZ4nVzN2FvY8dZOAK7A2oQuDgUSu3O7dhNG9b39vbIMyYulxsTHUXwn8zJM0Cy9KU4NXZs2yb8jh+y1IZieebm5mr8vBZ7hqgMQyPRz/NlGB25ugA1yFUvcmfb2tqiTdN69ixd2mFMTU0ZHjIIDgricDjS9gV73BXIzc2V5814q+aj4tlQONdYtUJKNpDhYXwMBkNny2bSPXZQycIqMxxQQ5lqQ6yPCmAP/vX2kujBv3Vv3sj8iGOQW0EKADUUJCy4FafAf18yYGoi/iUDOdnZH1+n0NgozhfsU7oCQA2lSw4Bf1dA/AuNBF7d9Hsn+L/qFcjLy/Xz9VFcHiqe19i+dSv8qElx1ZXfM/byxKamJn5XIl8TyW8A66pVAKihWv0hOnpTW0vT1OC9b3Fubs7qsKXwK6lBKeIoANQgTi3UN5P+vj6dzZvuxcUxmcO7d+6A5/cR/FAAahC8QOqS3sTExH59ve+//SYzI0NdxkzacQI1SFs6yiVeWVlhYnSIcsOi4IDy8/N8fbwVNzCYDVWctlTzXFv72vaoNdVGRcXxUJwa27bqfPjwgYqFo+CYgBpkKSpQgyyVon6eQA2y1BioQZZKUT9PoAZZalxQkO/j7aW4bFU8rwHfUBRXWtw9AzVwl1RBDoEaChIW3EqtAFBDaslU1AGooSLhIayQAkANIUkI2kBxamzV2QLXUAh66AmlBdQQkoSgDdSnxvj4OEG1h7Q+VQCo8akexN16UVDg7UXd2dCtOluAGsQ9+j7NDKjxqR7E3QJqELc26pYZUIMsFQdqkKVS1M8TqEGWGgM1yFIp6ucJ1CBLjSlODZ0tm2FeQ55jMSc729rKSjmLkYHBBm2acmLxomRkPJNHH/Xs+/LFC29PT8WNXcX3hups2TwxMaG44VHec0x01OlTwfV1dZRcwkJCfomMpHwRcR8gUAN3SSnlMCY6KvbWLUoNiW8w9+/dA2rw6SHpKlBDUqXU0w6ooZ51Fz9qoIZ4fdR9L1BD3Y8AUeMvfPnSy8ND1B582mBeAx8dVeUFqKEq5YkcF6hB5OqoPjdhajD6+7MyM59nZb1+XcPlcoVTXFpaQghVVVXx/stv09zcnJWZmZWZWVv7emVlhX+XSPuBgYHBwUEBMxk2Ozs66HQ6m8Xi7wvzGvxqSL5OdWps3jQ5OSm5HGApoIAwNRITEgJO+j9NS7t86aKFuZnwS96dHB0QQsnJjxBClhbmAg6DAgNjoqPSn6aFnDt70t9PYK+wfVpq6tO0NAEzaTdramqOubk+SUkReGMYUENaJTF7oIZsuqlLL5HUeJycjI3/7JnTVZWV79+/9/Xx9vLwqKmpKS4qWrf2p5cvXoSfP49RY35+/lRw8PT0NNYlKDAQe28rh8PR3bWzra312bN0hFBiQgKjvx+jBta3t7cnOflRWmqqi5OTp7v7tatXEEIf7y/y9HRzdWlpaXlTWxt+/ryXh0dYaCivHulP03x9vLGlq6sLaw8NOff27VuE0GFLC/7TDaAGTzepVoAaUsmldsbiqZEQH5+UlOjq7Dw0NMRms40MP76X4LClBe8sw+DgATtbm/a2Np5wQYGB7ieOh5w7a2Fudi8urrKiIjrqGkIoLCSkra0Vowb238bGxosXwtNSUzGIHLE6vLi4eP/evZWVlZISelBgYEFBfnBQEELIwd6OyRzGQiwsLEz9/sdms7FGV2dn7JTz+DG30dFRXjJADZ4UUq0UFRZ6urtL1UUqY1XPhsI3FKnKJWQsnhrh588Xvnypt3cP7593NovFT401P3xvYW7W2trCcxwUGJifn8fo719cXEQIVVZURF27ihA6e+Y0jxoW5mYIobo3bzBqYN9Qjh9z+/DhQ1hoqKe7+6ngYH8/34KC/HtxcQihwICTjP5+LERSYoKjgz22dLS3Y41+vj5DQ0MIIXs7WzjX4NVC5hWghszSqUVHkdSIjLjc2NiYmZGxT0+PxWL5+/nS6fTh4WFXFxeEkImR0dTUFO+sYYTJNDYy5H1Wed9QMPna29pcnZ1HR0f37tHlUcPg4IHh4eHIiAgBagwPD+vu3rW4uHjr5k0vDw+R1BBZlcyMjBvXrw8PD2NE49nAuQZPCqlWgBpSyaV2xsLUqK+rCwsNvXghPP7hQ+y0f2Fh4cb162fPnMbmEdJSU1++eIHNhmL/LSos5J1u5OfnDQ//99sEpmZSYsKF8PCc7OzRkRHMvu7Nm3Nnz7x88YJeXNzc3NzS8vFUJSPj2fz8fFZm5pnTp16Vlz9OTn779m1t7WuEUF5ervg5by6Xm5iQcO7smYGBAf4SAjX41ZB8neLU2LJp49TUlORygKWAAsLUEDAg9SZQQ7byATVk001degE11KXS0oyzuKjIw/2END2ks1XxbCica0hXLiFroIaQJNCAgBpwEIhTAKghTh113QfUUNfKSzbumOio7Vu32tvZKmGxtDC3PmKlhEC8ELt2bIdfykt2IHxiBdT4RA7YEFBgeHi4Wll/DnZ2v/7yi7Ki/TcOdh+HwKhhU7wC9OJi9xPHxdvIs1fF8xqbN27g3csszzCgrxIUCAoIyMrMVEIgCCGnAkANOQWE7rgpANTATUoFOwJqKFhgcC+xAkANiaVSsSFQQ8UFgPA8BYAaPCkIvgLUIHiB1Cg9oAZZik2n008cP6a4bGE2VHHaUs0zUIMsFaU4NTZtWD/z+/NgyFIStc0TqEGW0gM1yFIp6ucJ1CBLjYEaZKkU9fMEapClxiUl9OPH3BSXrYrnNeAbiuJKi7tnoAbukirIIVBDQcKCW6kVAGpILZmKOgA1VCQ8hBVSAKghJAlBGyhOjY3rtWdmZgiqPRnSKimhB5z0V86yV3e31WFL5cTiRSkqLCRDHYiVI1CDWPUgWjYx0VEe7ieynz+n5OLj7QW/lJfhkCstLTnm5ipDRwm7qHg2FM41JKzT58zgqTyfU0ad24Ea6lz91ccO1FhdI/WzAGqoX82lGTFQQxq11MUWqKEulZZtnEAN2XSjdi+KU2ODtvbs7Cy1S6jQ0X2OGl1dXR8+fMBCT09Pd3d3i0mDy+X29fUihLhcLr/Z0NDQq/Jy/hev8u8VMObfJcO6yCf9wftQZFASIVRWVurm+vE9ewr6U/FsKFBDzrp+jhr6env9fH0w5xGXLx3cv09MoJWVlbi4u7Ozs2dOn+KZvXzxws3VJf7hQwtzs1fl5bx2bOXqlSsMBkOgUZJNNos1ODgoYFnx6pWWxjqBRoQQUENYE0lagBqSqKS+Np+jhrGRoe1Ra+yl7Z7u7sZGhgihosJCfz/fmzdurKysPM/KSkxI8Pb0LCmhY9RIf5qms2Vzc3Mzpua5s2fy8nIRQqOjo+VlZSsrK7G3bvn6eMdER81MT+/asf3SxQvFRUU9PT0Iobi7d7B/4vx8fYICA0dHRqqrqzH/aamp/OUZHRkJDDjJ3/L27duw0FDsfff87UANATUk3wRqSK6VOlqKoUbc3TslJfTGxsZ7cXHGRoZDQ0OODvYYINJSU0POnU1KSpyfnzc4eIDD4RyxOjwxMcH/k6fR0VFnR0e9vXsuhIfPzs729PQ8Tk5GCDk5OvT19Qac9GcwGNFR1yorKhBC2LumL1+6yOFwMjKexURHJSUmhIac43A4+/T0MHghhB4+eHDMzVVny2ZfH28m85O3yWLvqRcoIZxrCAgi4SZQQ0Kh1NRMDDVGmEw/X5/zYWFjY2PGRob04mLDQwZhoaGnTwWnPnkScu5se1sb9oEXSY26N28QQsvLy+npT4+5uY6NjXl7evr5+uzasb29rU2AGuZmpgihXyIjvT09HeztIiMuJyUmPM/KQgjZ29nOz89j5Zmbm+vu7vb29JyamuJwOPw1A2rwqyHnenlZmasLzGvIqSJ1u4uhBkLI0cHe18cbIWRsZMhgMOxsbVZWVnKys4uLikLOne1ob+enxszMjKODPU8qV2fnzIwMNotVVVnp6e5+987tx8nJHA7H4MD+pqamU8HBXV1d9+LinqSkTE1N0TQ13r9/f8TqMELo1s2bF8LDkxITsp8/F6AGQmh6ejopKZEXhbcC1OBJIf8Kxamxnkabm5uTXya19fA5aty6eROhj+/7LC0twT7JCKGc7GxfH++wkJClpaXnWVnYd4S4u3ewry0IobNnTmP2CKGZ6emIy5fsbG3CQkJmZ2dHmExvT8/QkHOJCQkd7e3V1dWBAScnJyf9fH1CQ87dvXOby+VGRlwOCgh4kpLyJCWlurq6qakJIRT/8OHy8vKqBbp757awDXxDEdZEkhaghiQqqa/N56hBDUWAGrLVEaghm27q0guooS6VlmacQA1p1FI/W6CG+tV89RG/Ki93dXZe3U5WCxXf5QXzGrIW7r/9gBpyCkjJ7kANSpYVt0HFREcdMjh4+lSwEhZfH28lROEPYWxkCM/XkOFYoTg1tGlavIv5MqgDXd6+fZue/lQ5yw/ff/f4cbJyYvGidHZ0QJWlVQCoIa1iYK8oBWhamoB4RYmLq1+gBq5ygjM5FABqyCGeUrtWvHrl4uSkuJAqng2FbyiKKy3unoEauEuqIIdADQUJC26lVgCoIbVkKuoA1FCR8BBWSAGghpAkBG2gODVoWpoLCwsE1R7S+lQBoManehB3q7KiwtnRUXH5qXheA6ihuNLi7hmogbukCnII1FCQsOBWagWAGlJLpqIOQA0VCQ9hhRQAaghJQtAGoAZBC6OGaQE1yFJ0oAZZKkX9PLds2ghT16Qoc1VlpZOjg+JSVfVsqKbG4uKi4oYHnvFSICkx4e9/++u1q1fwcgh+FKcAUENx2oJniRTAHu2nr7eX0d9vbWXl4X6CzWJJ1BOMVKQAUENFwkPY3xRYXl52dXGxt7PFTgk5HE5QQICJkdH09DQoRFgFgBqELQ31E5ucnDQ4eCA4KGhlZYV/tHdux27bqvPu3Tv+RlgnjgJVVVX8j5vHPTGY18BdUoo47O/r09m86f69eyLHk5uTQ9PSbKivF7kXGlWrAFBDtfqrafTa2tc0TY2XL16IGX99XZ3mup8zMzLE2MAulShAcWpoaayDaygqObDEBM3KzNSmafFe+CrG8t27dzpbNkdGXBZjA7uUrwD1qbG0tKR8WSHi5xS4czt2x7ZtQ0NDnzMQaJ+dnbUwN/Px9uK9zFXAADaVrwBQQ/maq2lENpvt5+tjbmY6MzMjlQQyd5QqChhLrkB1dbWDvZ3k9tJaqng2VEtjHZxrSFszRdhjpwy+Pt4ynzLcuR27c7sUJymKGAX4xBQAasCRoHAF8JqekHxCROFDUu8AQA31rr/iR19fV0fT0szLy8UllCQXX3AJBE7EKADUECMO7JJXAUXcdiH+Rg95M4b+EihAcWporvt5eXlZAh3ABH8FsFs8BwYGcHf9uZtKcQ8EDkUqUFNTY29nK3IXLo0qng0FauBSRWmdKOHnJAI/YJE2Q7CXRwGghjzqQV8RCszNzVlbWXm6uyv6p6u8H8uOjY2JyAOaFKYAUENh0qql4+Hh4d07dyjzMRlJiQmbNqzv7u5WS71VM2ighmp0p2TU9ra2DdraT9PSlDy60tISmqZGxatXSo6rtuFev66xs7VR3PBhXkNx2hLLc0kJnaapUVVZqZK0Ojs6Nmhrpz55opLo6haU4tTQ+HktCx4MpfiDOikxYfPGDar9mjA6MrJHd3dkxGUul6v4Eat1BKCGWpdf/sFjU5L79PQ+fPggvzc5PczPz9tYWzs7OsLPCORUUnx3oIZ4fWCvOAWWl5ddnJwc7O2I8zgCDocTFhp6YJ/++Pi4uNRhnxwKADXkEE+9u05MTBzcv0/4+X1EUCUhPn7zxg29vT1ESIZ6OdTWvra1Oaq4cal4NhTmNRRU2r6+3i2bNj588EBB/uV3Sy8upmlqVFdXy+8KPAgoANQQEAQ2V1egpqaGpqlRVFi4uqlKLdraWtfTaOnpT1WaBQWDU5wa69b+pOg7FCl4UIgdUsrjxzRNjdbWFrFWRNnJZH686wyeIYhvPYAa+OpJZW/Y5ZK9e3RHR0ZINM65uTmrw5benp7w7wdeVXtTW2t71Bovb8J+VDyvAecawiWRrYXFYh0/5mZ71JqMr2LlcDgBJ/3NTExm4OVMspX/015AjU/1gC1RCkxNTRkeMuBdLmGz2fzvRpubmxN/K93S0pLIf+eHf/sTFRC3tsXFRd69G9FR17bp6AwODuLmXV0dATXUtfISj5vR36+zZXNc3F1ej9ra13/50x/7+/oQQisrK2t/XJOR8Yy3V3gl+/nzxsbG9PSnLS3/Nxvi7+cbHBR0KjhY+BreysrK+bAwYT/StszOzpoaG79+XYMQysnOPubmqq+398cf1zQ2NkrrCuz5FQBq8KsB64IKvKmtpWlpFhTk8++orX19yOBgdNQ1hFBlRcU+Pb2MjGccDufhgwfh589jNMnJzr5x/Xp01LXFxcWG+vq+vl4TI6PQkHOYHw6Hs19fn8P5/+19B1cU6bru/7h33XXPOXffO/vsM2MWaMCEiqJgJCcZooASG5BkIolEBQQBFRQQEAMNypgRFEFykChJ1G5ybKDjd5en9vRmiEV3V3dV9evqNVZXvd8bnqd9puqtqu8TIoTycnOnpqZGRkbi4+LCw8K6u7vfl5fv3rmjqampiMVCCA0PD3+sqBAKhffv51y+dBFL5sWL5zk52VFXI0dHR79+/VrEYmGfzs5OSaquzs6ODvaYathYWwv4/OnpaSPDk0srkgyBDTwI0Fw1tm3ZLPWk2Hjgo7fN0+JiTYbG0v8z19RUR4SH29r87IddOB98IympsPBJYsL1ggcPRkZGTIyMhELh1s2bent7khITcnKyU2/eLC0tDQsJ+fD+vQSxO7dvH9i/z/+cX11tLUIoNiamrbW1s7PT1sYGm9Ccx+NZWpgjhFpaWiLCwysrKzPu3Jmenj6irz8/P39Qd39NTfWzp09DQy6vpBoIobjYWEw1MFcIIXNTk3+ePd1KlyQDG+tCoL+/f6WlNtflZyVjJXdDQTVWImbN/aWlpf/xb/+7u3uZxytraqojr0RcvnSxq6vLz9fn3t27hYVPrK0svT09fX2YZiYmQ0NDZiYmCKH35eXJN25gqhETHSVZt3Vubm6QwxGJRA319YYnT7S3tVV+/Mj08grwP2diZCQQCGysrRFC2D/15ubmiPDwoaGh88HBfr4+O7Q0x8fHzU1/+mez2Uxv75qaal8fJvZZ9BTJUtU4ZW2Fnb/84++/nDx2TO+ArmI+B/bvY2io0+OzeeNGEyPDNX9CUhuAakgNnZIH/us+69DQolQw1aivqzMxMiouKsJUIzDAHxOF69fiBQKBhbkZpho3kpIw1YiLja2tqcFc9ff1GZ48gd2OCQoMrKqqOqR3kMfj9fR0Hz96RCQSYf+2Txw/JhQKHz96GBEeHhYa+vrVK6FQeGD/vqGhIUxQMNXg8/kTf/6R9D6xQBLVcHV2HhkZ6e3tYXp7S+7Ffv820N/Xt/AzNDj4pyd6/r0In0XM4vwaGnKZ0EkJQDVwEkFSs2Wf6ero6MjNvS8Wi11On56bm3v18mXFhw/Dw8N+vj7ubmfzcnMRQhHh4djFRRGLhXVDq6qqnBwdJK+xF7FYdra/29vZ3v7vK4Xbt9J9mN7xcXEhly8hhHx9mC9ePM/Py3N1cbkWH5+Tk93Y0OBy+nTI5UthISH9/f2Y/9HR0ZspKatg9+jhw46ODoRQT0+3p4e7u9vZxsYGeO5rFcTwHALVwIOSSttQ5flxPCTBM+Z4UFrTBlRjTYjAAGHvqt27e5fSWMD7bPKij+aqsXXzJuz2nrzwUlk/ZH4vHg8p2LvzyzZ38QwHm4UIgGosRAO2V0Ngfn7e5fRpJ0cH8szBs1q6fx7D2rowT8+feMjh77CQkAf5+XJwtIILJXdD4VxjBV6k3E2q+f7w1IDNCXjayVEu9w7wRFQFG1ANVWBZzjVSZQkSbP7hsNBQyY0bOQOhqu5ANVSVednqLi1V5joGeHLvaG/foaVJ6Ik0njRoaQOqQUtaFVFUW2urFoOh+DWT8NRWXl4G6yrhAUo6m7DQ0Py8POnG4hml5L7Glk2bRCIRnkTBRgoEOBy23gFdss2UlZt7f6e21sLX2KQoDYasggCoxirgwKG1EZiZmTllbaWAtaDXTgUhrFmrf/jQ0JKn4PEMBxucCIBq4AQKzFZEQCgUBgUEmBgZLZyqZ0Vrwg7weLwzri72drZUnG2MMFQIcQyqQQisKug0PS11r86egYEBpdQ+Pj5+4vgxyWxjSslBdYKCaqgO14RXWvLsGUNDvbGhgfBIfw3Q19u7Z9fOO7dv/3U3fCMKgfCwMOwdRYICQDeUIGBJ6ra+ro6hof7HHyUKy6+mppqhrvbq5UuFRYRANFeNzZs2whM+Cv6V9/f36+zZnZSYoIC4xUVFmgyN5uZmBcSCEBIEQDUkUMCG3BCYmJgwMjzp68MkdPrF9LTU/Xv3fv/+XW55gyN8CIBq4MMJrNaJgEAg8PP1MTcznZqaWufQtc0FAsE5P1+CnK8dXuUtQDVU/idAJADpaam6++R8OjA9PW1pYe7D9Cb0RIZIVCjvOyI8PDf3PnFlKLkbCn0N4qjF6bmIxZJj64HNZuvu20u2p1FxQkEbM1AN2lBJ3kKqq3+uQS/7bY6G+nr17dtWX7GJvCjQKDOaq8amjRtoRBaFS8EeqZBlEY2SkhKGhrpkbQQKY0H91EE1qM8hRSoYGxs7ceyodI9vYg+efv36lSK10jzNKxER9+/nEFekkvsacK5BHLVSeObxeK4uLg72dvjnEPz5kktgoNJfcpGiWBoPAdWgMblkLA17LdVA//Dw8PCa+XG5XBtra0/kJRwUAAAgAElEQVQP92WXpF9zOBgQhACoBkHAgtvVELh/P2entlZXV9cqRoMcjt7BA3C7ZBWIlHUIVENZyKt63LKyd6tMt9Xe1qatqfmwoEDVYSJl/XRXjQ2/kRJ2SOonApg0LF0x9N27n5OSfqyoAJjIiUDklYicnGzicoNuKHHY0sGz5DJE8pJhTk72mhcvdKicyjWAalCZPVrkzuVyfz91ysPdjcfjxURHHdHXx9MopUXpVC0CVIOqzNEpb+z26obffnU5fRqWOyI/s6Aa5OdIVTL8r3/8J0woTwmyr0ZeycnOIi5V6GsQhy3dPG/auEHS3aBbbfSqB1SDXnxSuRpQDaqwB6pBFabonyeoBlU4BtWgClP0zxNUgyocg2pQhSn65wmqQRWOo65GZmdBN5QqdNE6T1ANqtALqkEVpuifJ6gGVTgG1aAKU/TPE1SDKhyDalCFKfrnCapBFY5BNajCFP3zBNWgCsfRUVez7t0jLlt4NpQ4bBXkeWpyckwhfzb89uvo6KhCQv0lCDzGvt5fEqjGehFTOfu9Ont2amvt2bWT6M+2rZuJDrHU///593/r6+1VOVJlKxhUQzb8VGD0Xp09NH51/aiBAajGen/FdFcNmMtrvb+IJfagGksgUfUdMdFR9+7eJQ4FZfc1QDVk5hZUQ2YI6eaA7qoBa6/J/IsF1ZAZQro5ANWgG6NyrwdUQ+6QUt0hqAbVGSQ8/2VVg8NhOzk6SLqkMdHRpaWlq6TysaLi06dP379/7+/rk5jV1FS7Ojs7OzmxCgslOyUbcpyjvKmpientfS0+XigUSvxjG9ANXQQInq+gGnhQUmmbZVXjy5cvatu23s3MRAhNTk6qb9+WmZGBEOJyuf39/diUXFwud3JycpDDQQiNjY2Nj48nJSYUFxVJ0DQ8eWJubk4oFNra2HA4bMysv69PJBLNz8+bmZjMz8/PzMwghEQi0ezsLEJofn6+u7sbW/CRy+XOzs5++/ZN4nClDRMjo7m5ueysrPy8vEU2oBqLAMHzNSY6CqMej7EUNsruhkJfQwrS/jpkJdXw9vS0t7NFCOXm3g8OCsrMyPj8ucXezjbh+jVPD3eEkN4B3dCQy6esrV68eJ6fl/f48SN7O1tvT0+Je3s727CQkMaGBuw5q/v3c5heXpFXIrw9PWtranZqa1VXf7IwN0MIffv2zc/Xp7+vz9LCPPnGjUN6B2dnZ09ZWwUHBXm4u6UkJ2M+eTyek6MD9gkLCcF2zs7Oupw+jRD6+vWrn6+PJDq2AaqxCBA8X0E18KCk0jYrqYb/OT+mt/fQ0BDT25tVWJiZkXHOzzfqamTWvXv6hw/19HSfOHYUIdRQXx95JQJTjfS01Ldv3kjQFPD5r16+POfne9TAYJDD6e/v/1hRcSs9zUD/MELIytICIbRQNaanp6urPz3Izz+ou7+vt9fEyIjP509PTzvY22E+RSJR459/Ojs7sZ0cDhtTsaGhIXe3s5Lo2AaoxiJA8HwF1cCDkkrbrKIapW/fxsbERISHF7FYmRkZTG/vkmfPGhsbnz19OjExYWlhjhBqaWmJCA/HVONWeppENdhsduSVCAzZ7KyshwUFbmfP3M3M7OrqOmpgIFENc1MThFBHe7ufr8/T4mIvD4/q6k+uzs7d3d2Y//n5eTvb3zE/Aj4/KTEB++Tl5v5zp0BwytoKIdTY2Bh1NXIRl6AaiwDB8zUmOhquUPAApbo2q6iGQCDYunlTc3Mzpho1NdW2NjbpaanGRoYCPn+pahQWPnF2cpIsEH/aydHt7Jmoq5FmJiZDg4P2drZpqalhISEHdfcjhI4fPfLh/Xuml1d01FVfH6afr8/DgoIzri7paan7dHQaGxuXqsZKJIVcvpRw/ZqNtXVHR8ciG1CNRYDg+RoTHY21sfAYS2EDfQ0pQCPXkGVVQ8Dnj46OIoSwZieXy52amkIITUxMtLS0YLowNDiIEOLz+ePj49PT0zMzM2KxuLu7e+GNjEEOp72tDbMX8PktLS1TU1ODHI5YLB4fHx8aHBQKhe1tbVwuFwvX09P9/fv3qampmZkZzL9YLB4aGlodMrFY3NHRMTIystQMVGMpJmvuAdVYEyJVN1hWNWgDCqiGFFSCakgBmmoNAdVQLb5xVAuqgQMk1TYB1VBt/pepPjYmBvoay+ACuyQI7NXZ8/Xr1xma/jHQPwxvyku4xrkRGxOTcecOTmMpzKAbKgVo5BpibWWpydBQwGfjht+2bd2igECLQuB5upRclCg7G1ANZTMA8f9EIMD/3NPi4j+/wd/kRQBUg7zcqFpmoBpUYRxUgypM0T9PUA2qcBwXGwt9DaqQRfM8QTWoQnBcbOyd27eJyxa6ocRhSzfPoBpUYRRUgypM0T9PUA2qcAyqQRWm6J8nqAZVOI6Pi4MrFKqQRfM8QTWoQnB8XNzt27eIyxb6GsRhSzfPoBpUYRRUgypM0T9PUA2qcAyqQRWm6J8nqAZVOAbVoApT9M8TVIMqHF+Lj4e+BlXIonmeoBpUIfinatxKJy5b6IYSh62CPB8+pLfxt183bfiN6M8/fvnl13/8g+goi/z/8n//1t/fryAo6RIGVIMuTBJWB8zKQxi0VHUMqkFV5hSWN6iGwqCmSiBQDaowpbQ8QTWUBj1ZA1+/Bn0NsnJDkrxANUhCBHnSuH4t/lZ6GnH5QDeUOGwV5BlUQ0FAUycMqAZ1uFJSpotU48P79zHR0VguAoEgwP/csqsTSZLNycnmcrntbW2SPf39/b4+TF8f5qWLFyo/fpTsxzZqa2rq6+oW7hSLxfJ6OqC+rq62pmahc1gPZSEaOLdBNXACpbpmi1Tj9q30TRs3sNlshFBpael//effsTm+BQKBZClGhBCPxxOLxQghbGk1aytL7CtCqLamJjDAf2Ji4suXL4f0DmJLqEnwLXjw4PGjh5KvCCGRSGRtZSkQCBYu2jY7OyuxEQqFC0Nj+588eSwQCCQ2CKGSkpIdWpoFDx4s3AmqsRANnNsJ16/BFQpOrFTUbKlqBPifw340QQEBri4ufb29z54+dXV2PnvGlVVY2Nr6+dgRg8AA/6MGBhMTE2dcXRrq69W2bU1LTcUQrK2puXzpIrZta2MjWee5paUlPCwMU41LFy9gi8JbWpiLRKLtW7f4+foYnjzR2dmJrSYbGOB/xtUFIXRQd3+A/7kTx48tOolwdXHh8XgLOSstLX2Qnw+qsRAT6bYTrl9LT/snm9J5WH0U9DVWx4cCR5eqRnFRkb2dLY/H8z/n58P07uvt1T98qLS09N270kN6B1tbPzO9vRFCcbGxlR8/nnF1GR8fX3SusUNL08nRwcbaOuH6NYSQZB3plVRD//AhhNDz53/czczs6elub2t7+eKFzp7dCCED/cMIoffl5ZgrhFBnZ6eTo4Patq0O9naLlj5//OghqIbsvzlQDdkxpLmHpapR8uxZYIB/ZkbGixfPMdU4qLu/iMUqYrHy8/JaWz+HhYQghJKSEj+8f7+sakjONTDszM1MEUI1NdUS1bh86SLWCjl54jh2hYIQevP6dXpaakpycoD/udevXh0+pCdRnE+fPsXHxS1kYum5BkIIVGMhRFJvg2pIDZ2qDFxWNT5WVKhv38bn8zHVCAsJSUpKvH37lrvb2WVVw9XFpbioCINs4RUKtsfSwjwvN5fp5SVRjXt37wYG+N9MSTmou3+RavgwvTMzMjLu3NmyaZNIJMLOU5aqRntbm0gkWkQSqMYiQKT7CqohHW4qNGqRanz//n14eFgkEjU1NWGXA3Nzc9iZQlnZO6FQODMz09PTjRAaGBiYmJjAuqGjo6N1tbUYalOTk5iBBMSpqam3b94Mcji9vT2DHA7WH/1YUdHZ2dne1iYWi1taWhBCY2Nj379/n5+ff/3qVVdXV2dn59zcXHNzM0JocnISz+skQ4ODgxyOJC5CCLqhC9HAuZ2YcB36GjixUlGzRapBMxRANaQgNDHhuqS3LcXwNYdAN3RNiMhuAKpBdoYUnh+ohsIhp1pAUA2qMUZ4vqAahENM9QCgGlRnUO75JyUmwBWK3FGllUO9A7qKmZXnl7/9bTPxc/8smpXnb//x7/19fbQijPhikhITUm/eJC4O9DWIw5Zunhka6lwul25V0bEeUA06skrNmkA1qMIbqAZVmKJ/nqAaVOEYVIMqTNE/T1ANqnCclJQIfQ2qkEXzPEE1qEJwUlLizZQU4rKFbihx2NLNM6gGVRgF1aAKU/TPE1SDKhyDalCFKfrnCapBFY5BNajCFP3zBNWgCsc3kpKgr0EVsmieJ6gGVQi+kZSUkpxMXLbQDSUOW7p5BtWgCqOgGlRhiv55gmpQhWNQDaowRfM8BwYGNNTVfvz4QfM6aVFe8o0bcIVCCyapXERDfT1DQz04KGinttaXL1+oXIpK5J5840byjRvElQp9DeKwpYnnkpIStW1bP336hBAqLy9jqKtVfPhAk9poWgaoBk2JpUhZ6Wmpe3X2fP36VZJvR3u7tqbmg/x8yR7YIBsCoBpkY0RV8hEKhUGBgcZGhpOTk4tqHhocPKR3MCw0VLLI4yID+KpcBEA1lIu/ikbncrk21taeHu58Pn9ZCLhcrq2NjbOT0/z8/LIGsFOJCKQkJ0NfQ4n4q2LoQQ5H7+CBmOio1YsXCoVhoaHHjhiMjo6ubglHFYxASnLyjaQk4oJCN5Q4bCnpub2tTVtT82FBAc7ss+7d27VDe9GqSzjHghlBCIBqEAQsuF0GgXfvShnqah8rKpY5tvKu0rdvGepqVVVVK5vAEYUiAKqhULhVOVhOTvZOba2uri4pQGht/azFYDx+/EiKsTBE7giAasgdUnC4GAGxWBwTHWWgf3h4eHjxMdzf2Wz2Qd39a3ZDcPsDQ+kRuJmSAn0N6eGDkWsiwOPxXJ2dHR3ssUWk17RfxWBmZsbaypLp5SVY4c7LKmPhkBwRuJmSkpSUKEeHi1xBN3QRIKr1dWxs7MSxo8FBQSKRSC6VC4XCAP9zZiYmU0ue8pCLf3CCBwFQDTwogY00CPT29uzeueNuZqY0g1cdk56Wuk9H59u3b6tawUGiEADVIApZFfdbXf2Joa72+tUrgnB4WlysydBobGwkyD+4XQWB1Js34QplFXzgkDQIsAoLNRkaLS0t0gzGPaa2poahof7ixXPcI8BQPgj8VI3EBPn4Ws4L9DWWQ4W++8RicVJigu6+vYqZKaO/r2/P7l23b6XTF1EyVgaqQUZWKJoTn893dztrYW42PT2tsBImJiYMT56QY8NVYZlTNxCoBnW5I1fmExMTRoYng4OChEKhgjPj8/luZ8/Y/W4zOzur4NCqGQ5UQzV5l3PV/f39Ont230pPk7Nf3O6wB8kOH9IbGhzEPQgMpUQgLTUV+hpSYgfDMATqamsZGurPn/+hdEDy8/IY6mqfPxPbhVV6mUpPIC01NTHhOnFpQDeUOGxJ4fnZ06cMDfXGhgZSZIPQp08/7/i+ef2aJPnQMg1QDVrSqqCisKetBgYGFBQPXxjini7DF5/+VqAaZOH406dPAoEAy6ajvX18fJwsmS2Xh1AoDAzwNzU2JueT3WNjY8ePHoEbK8tRJ4d96WlwhSIHGOXgIiU5+fq1eIQQh8M2NjJcaWo8OUSS2cXMzMwpaytvT08yv0U2Pz/vcvq0k6OD7G/NyQwY3Rykp6UmXL9GXFXQ18CLrVAoNDI8+eXLF0cH+46OjrbWVl8fpv85v4GBgfHxcT9fHy8Pj/LyMrzuCLPjcNh6B3Qp8cY6dmPliL7+yMgIYXioomNQDRKx3t3dvWfXzrTUVISQuZnpzMzMIIfj6GD/+PGj2JiY2dnZIhZLuem2tbb+nB3n0UPlprGu6DnZWbA407oQW9MYVGNNiBRqYGpszOVyEUJq27b6+jB9fZhXI6/Mz8/HxsQYnjwRGxOj0Gz+Gqy09Of8fZWVlX/dTYFv/8z840cK5EqFFEE1yMWSmYkJphrmZqZfv37taG8PCw0tefbs0cOHs7OzBvqHlZVudlbWrh3a3d3dykpAxrhtra3ampqPHlLpLEnGkokbfis9DfoaxMG7bs85OdlYH/THjx+hIZdDLl9is9nYuUZQQEB9Xd26Pco8AOsOHDUw6OnpkUyuM/fff1bxLRAIli5lMjU1NTExsdJbKjMzM4sccrlcScRFh/B/laTx48d3mEMQP26rWN5KT8M696vYyHIIuqGyoKf8sfPz885OTk6ODqOjo//rf/4PyWvpVpYWkVciVsmvubm5iMVqamoqKSmRmOnu2+vrw3Q7e+aIvv7S9+gtzM0kltiGh7vb0NDQop34v4rF4vi4uGvxP+9Mffv2zdrK0u3MGZ3du708PMh89wd/gcqyBNVQFvIUiDs6OnrsiEFwUJBYLJ6ZmTHQP+zl4YEQGhsbO3bEAFONN69fx0RHYRLw4sVzVmHh9Wvx4+PjAwMD9XV1QYGBDvZ2kpOLowYGWNnvy8svXbxQWVmJvTaCdXktzM1GR0c/vH+PEKqrrf327ZuHu9vjx4/i4+KwhWCrqz9FR13Nzb0vFArLy8vKy8tioqM7OzuxPnERi1XEYlUuaF7ExcYyvb0x1YiJjq6pqUYImZkYB/r7mxgZLV0pkgKUkCNFmqvGht9+7e/rk8unva2tkdZ/qqqqysreST45Odk7tDTz8/KwH+rMzIyNtbWjgz2Px8u6dy/15s3IKxGlpaUXL5wfGhy0trIcGhrSP3yo9O1bVmHhpYsXysvLkm/cyM7KSkpMkDy9dkjvYFnZu1cvXzo7OT158vhq5BXsUXRLC3OEkIW5WXtbW2jIZYRQUmJCxYcPHu5uKcnJDfX1dra/T01O+vowhwYHz/n5lpeXnQ8OTky43t7WZmxkuJJqiMXiqqoqTDXc3c5i919dXVxGR0dTkpN37dB+9OihpF5qbZS+fYuppFL+6+XpcS0+jjgFU/IVSnBwoKmxMW0+ZiYmTo4OivmYGBtpqKlJ3knDVCMnJ/v58z+YXl7V1Z8ir0REhIfb2tj4+jDNTU0qPnwwMzFBCA0PD7udPYOpRnFRUU5OtuTnpXdAN+vevdzc+w319QghiWpg1yaYaoRcvrRQNdhsNkLI0sJcJBLdTEnxYXobGxk+LS4+Hxzc2dmJ3aKenJwMCw3FPgvDIYQkquHp4Y6d1zg7OXG53Lzc3C2bNpibmRIHJnYLjJb/9XB3I3QZTSWrhuT3ChtSIIC9/469E42pxvj4+Clrq6uRVzDVyLhzp+DBA4TQw4ICNpuNnTKMjIxIVKPk2bPsrCxJaMkVCrYnPi6utLR0bm5uz+5d2LlGT0+3t6cnQojp5YWda2B9DUsL83fvSi+cD0YIXb50sbDwyfngYOyGjoW5mUAgkJxODnI4knALVSMtNfX1q1dCodDU2DgmOkr/8CFZOiYLQ8C23BEA1ZA7pAp1iM214+vDnJqawv7R+vn6dLS3t7Z+zrhzZ25uLjDA39vTMywkRCQSBQUGIoQmJiairkY21Nc/LCjo7++3trLEzhcQQlhbRFJAb2+P3e82QYGB/uf8EEJBAQFisRh7CjY4KKixsTEmOgp7HycoMHB0dNTJ0eF8cPCViIgnTx4n37iBzVEeFBAgcbh0o6Wl5f79HITQ9PS0D9Pbxfm0saGhne3vMH/PUqzIswdUgzxcSJmJQCDw9WEqeF4/KXNdddj4+PjJE8fhlbZVQSLFQVANUtAgexLpaakKm0NY9myXevjnvMS3by09BHvIhgCoBtkYkT6fIhZLk6HR3NwsvQsljfy5BoK62ssXL5QUH8KuDwFQjfXhRXJrotdGIqJ8bL2lpqYmIpyDTyIQANUgAlVl+uzt7dmza2dmRoYyk8AdOz0tdf/evbC2I27ASGEIqkEKGuSbhNzXfJZvepg3gUDgf87P3NRkamqKCP/gkzgEQDWIw1aZnnk8nquLi4O9HTlnypqZmbGytGB6e8P7Jsr8lUgbG1RDWuRIPw57F9ZA//Dw8DCpkmWz2fBuK6kYWW8yoBrrRYxi9vfv5+zU1urq6iJJ3p8/t2gxGE+ePCZJPpCGFAiAakgBGsWGlJW9Y6irfayoUHreb9+8YairVVVVKT0TSEAWBEA1ZEGPMmPb29q0NTUfFhQoMeOse/d27dDu6aHqbGNKhI5soUE1yMYIUfkMcjh6Bw/EREeJxWKiYqzgVygUBgcFHTtiQOiLmCsEh93yRwBUQ/6YktYj9l6sp4e7Ihdz4XK5v5865eHupsigpKWAHomBatCDR7xVCIXCoMBAYyNDxcyUhZ3gxMbEKP4EBy8iYLd+BEA11o8Z9Uekp6Xu1NYiusWANVOwCT6ojxlU8C8EQDX+hYVKbRF9OwO7cVPx4YNKoaoixYJqqAjRy5T5+XOLJkODiEcnyPaQyDLFwy4ZEADVkAE86g9ls9kH9u+T46KwpH0glfpckagCUA0SkaGUVKanp+X1SgjJX35RCry0DAqqQUta11eUXF4/pcSLtuvDBaxXQABUYwVgVG+3LFNdUGtSD9XjVs4Vg2rIGVBKuysuKtJkaKx3Wi1sArFXL19SunZIHj8CoBr4sVIJy/VO4UndyUpVgk5iigTVIAZXKnvFP1041SdGpzJLyswdVEOZ6JM29ppLk2CLsJibmUpWliZtLZCY3BEA1ZA7pDRxyOPxzp5xXXYZNMmCb5JlpWlSM5SBDwFQDXw4qaQV9sjWoiVXFy4uq5KoQNEIVAN+BGsgkJebu0NLs6OjAyFUX1fH0FD/44+SNcbAYVojAKpBa3rlVFx5eZmG2vbYmBiGhnpjQ4OcvIIbqiIAqkFV5hScd0dHx/atW2C5IwXDTs5woBrk5IWMWW3auIGMaUFOCkcAVEPhkFM2IKgGZamTc+KgGnIGlMbuQDVoTO66SgPVWBdcKm0MqqHS9C8oHlRjARiwuSoCoBqrwqNCB0E1VIhsGUsF1ZARQNoMB9WgDZWEFwKqQTjEFAkAqkERokiQJqgGCUggRQqgGqSggRJJbNrwGyXyhCSJRgBUg2iE6eMfVIM+XMpWCaiGbPip0mi4QlEltlerFVRjNXRU7RiXy21saHj8+FHqzZuXL108e8bVzMTkiL6+3gHdPbt2/v2X/8fQUNc7oHvUwMDU2NjeztbVxSU05PLdzMzSt297erph/WcV+cGAaqgI0cuXyePxKisr4+PibKytGRrqDHU1C3Oz88HBSUmJBQ8evHtX2t7W1t/X9+PHj4mJienp6anJyeHh4f6+vtbWzw319WVl7x7k58dER7m7nT1+9Mj2rVsYGupnXF0y7txpbf0sFAqXjwp7KY4AqAbFCZQqfTabfSs9zdjIcOvmTbY2NmmpqXW1tXKZy29qcvLtmzdRVyONDE9u3rTR0sI8MyNjkMORKk0YRFIEQDVISgwRac3Pz+dkZx0/emSntlbklYimpiaRSEREIMynQCCoqakOCwnR1tQ0NTYuLHzC4/GICweeFYYAqIbCoFZmoPHx8bjYWPXt23x9mC0tLYpPpaqqysPdjaGulpKczOVyFZ8ARJQjAqAacgSTjK7EYvH9+zkaatujo64ODw8rN0UOh33p4gWGhvrDggKxWKzcZCC61AiAakgNHQUGstnsY0cMHOztfvz4QZ50+/v6TllbnbK2GhkZIU9WkAl+BEA18GNFMcuWlhYtBqOw8Ak5876bmamtqdnV1UXO9CCrVRAA1VgFHAofam9rY6ir1dRUk7mG9+XlDA31/r4+MicJuS1FAFRjKSaU3zM9Pb1n966KDx/IX8nLFy909+2Fx8PIz9TCDEE1FqJBk+2LF87HxsTIUkxDfX3WvXvYp/Tt25VcvXn9eqVD+Pef8/NNvXkTvz1YKh0BUA2lUyDnBHg83tbNm2S8uxl5JSIlObms7F1Z2bvPn1e8U2tpYS579j9+/Ni1Q1t2P+BBYQiAaigMagUFqqutPWVtJWOwyCsRCy9wurq6fH2YTG9vV2dnPp+PPXxx8cJ5c1MTGQNhw/fv3cvhsOXiCpwoAAFQDQWArNAQr16+ZHp5yRgy8kqE4ckTTo4OTo4OJc+eNTU1nXF1QQiFhlyuq621sbaem5sb5HBMjY1lDIQNtzA3U8qzZ3JJXgWdgGrQjfTGxkYLczMZq1p0rtHU1BQRHo4Qun4tvrKy0srSAvNv97uNjIGw4Xt19sC7KnJBUjFOQDUUg7Piogj4fLVtWycnJ2UJubCvUVNT3dTUdCUiQqIagQH+5eVlz54+NTEykiUKNra/r2/Prp2y+wEPCkMAVENhUCsu0PVr8YEB/rLEW3gPpYjFGh0dbaivRwg1NzcPDQ7Ozc3dzcx89vRpWdk7WaJgYz3c3e7dvSu7H/CgMARANRQGteICCfj8fTo6q9wxVVwqa0XC3sGFmTjWwolcx0E1yMWHvLLp7u7WYjBILhxFLJbOnt1jY2Pyqhr8KAYBUA3F4KyEKL29PTu0NNNSUwmdREO6wgQCQVho6EHd/d++fZPOA4xSIgKgGkoEn/DQ4+PjLqdPGxme7O3tITwY7gD1dXVH9PV9mN7z8/O4B4EhiRAA1SARGQSlUsRi7dDS9PLwUPp7Yl1dXS6nTx/Yv08ubVSC4AK3ayIAqrEmRHQwEPD5OTnZ2pqajg72L1+8EAgEiqxKIBA8LS42NjLcp6PzID+fhFdMikSDBrFANWhAIt4SBALBq5cvTzs5qm/fFhQY+OrlSxlfV1k98MzMTHFRkdvZM9u2bHZ1dq6qqlrdHo5SBQFQDaowJc88JyYmHuTnn3F12b51i+HJE1cjrzwtLu7r7ZV9Vr6BgQFWYeHFC+eP6Otv37rF29Pzjz9KZmdn5Zk9+FI2AqAaymZAqfHFYvHnzy13MzP9fH0OH9LbtHHD4UN6jg72ly9dvH0rvYjFKit7V1tTg62K0t/Xh316errramtfv3r1sKAgPS01LCTE3s52n47Opg2/6R3QDRD/XbwAAADvSURBVPA/9yA/v7u7W6mVQXACEQDVIBBcyrkWCoUDAwOVlZUFDx7Ex8UFBvh7uLvZ29maGhvrHTygd0D3+NEjpsbGpsbGv5865eXhcfnSxYTr1/Lz8qqqqoaGhihXLyQsHQKgGtLhBqMAAdVFAFRDdbmHygEB6RAA1ZAONxgFCKguAqAaqss9VA4ISIcAqIZ0uMEoQEB1EQDVUF3uoXJAQDoEQDWkww1GAQKqiwCohupyD5UDAtIhAKohHW4wChBQXQRANVSXe6gcEJAOAVAN6XCDUYCA6iIAqqG63EPlgIB0CIBqSIcbjAIEVBeB/w8WGFDm7va1xgAAAABJRU5ErkJggg==;" parent="1" vertex="1">
          <mxGeometry x="900" y="260" width="359" height="740" as="geometry" />
        </mxCell>
        <mxCell id="GbGGO6XTbphgnzqrixOe-1" value="&lt;font style=&quot;font-size: 15px&quot;&gt;Start&lt;/font&gt;" style="ellipse;whiteSpace=wrap;html=1;" parent="1" vertex="1">
          <mxGeometry x="342.44444444444446" y="40" width="91.1111111111111" height="39.99999999999999" as="geometry" />
        </mxCell>
        <mxCell id="GbGGO6XTbphgnzqrixOe-3" value="" style="shape=hexagon;perimeter=hexagonPerimeter2;whiteSpace=wrap;html=1;fixedSize=1;" parent="1" vertex="1">
          <mxGeometry x="328.77777777777777" y="104" width="118.44444444444444" height="48" as="geometry" />
        </mxCell>
        <mxCell id="GbGGO6XTbphgnzqrixOe-4" value="" style="edgeStyle=orthogonalEdgeStyle;rounded=0;orthogonalLoop=1;jettySize=auto;html=1;" parent="1" source="GbGGO6XTbphgnzqrixOe-1" target="GbGGO6XTbphgnzqrixOe-3" edge="1">
          <mxGeometry x="306" y="40" as="geometry" />
        </mxCell>
        <mxCell id="GbGGO6XTbphgnzqrixOe-5" value="" style="whiteSpace=wrap;html=1;" parent="1" vertex="1">
          <mxGeometry x="321.18518518518516" y="176" width="133.62962962962962" height="48" as="geometry" />
        </mxCell>
        <mxCell id="GbGGO6XTbphgnzqrixOe-6" value="" style="edgeStyle=orthogonalEdgeStyle;rounded=0;orthogonalLoop=1;jettySize=auto;html=1;" parent="1" source="GbGGO6XTbphgnzqrixOe-3" target="GbGGO6XTbphgnzqrixOe-5" edge="1">
          <mxGeometry x="306" y="40" as="geometry" />
        </mxCell>
        <mxCell id="GbGGO6XTbphgnzqrixOe-7" value="" style="whiteSpace=wrap;html=1;" parent="1" vertex="1">
          <mxGeometry x="317.3888888888889" y="247.99999999999997" width="141.2222222222222" height="48" as="geometry" />
        </mxCell>
        <mxCell id="GbGGO6XTbphgnzqrixOe-8" value="" style="edgeStyle=orthogonalEdgeStyle;rounded=0;orthogonalLoop=1;jettySize=auto;html=1;" parent="1" source="GbGGO6XTbphgnzqrixOe-5" target="GbGGO6XTbphgnzqrixOe-7" edge="1">
          <mxGeometry x="306" y="40" as="geometry" />
        </mxCell>
        <mxCell id="GbGGO6XTbphgnzqrixOe-9" value="" style="whiteSpace=wrap;html=1;" parent="1" vertex="1">
          <mxGeometry x="317.3888888888889" y="320" width="141.2222222222222" height="48" as="geometry" />
        </mxCell>
        <mxCell id="GbGGO6XTbphgnzqrixOe-10" value="" style="edgeStyle=orthogonalEdgeStyle;rounded=0;orthogonalLoop=1;jettySize=auto;html=1;" parent="1" source="GbGGO6XTbphgnzqrixOe-7" target="GbGGO6XTbphgnzqrixOe-9" edge="1">
          <mxGeometry x="306" y="40" as="geometry" />
        </mxCell>
        <mxCell id="GbGGO6XTbphgnzqrixOe-11" value="" style="rhombus;whiteSpace=wrap;html=1;" parent="1" vertex="1">
          <mxGeometry x="317.3888888888889" y="400" width="141.2222222222222" height="96" as="geometry" />
        </mxCell>
        <mxCell id="GbGGO6XTbphgnzqrixOe-12" value="" style="edgeStyle=orthogonalEdgeStyle;rounded=0;orthogonalLoop=1;jettySize=auto;html=1;" parent="1" source="GbGGO6XTbphgnzqrixOe-9" target="GbGGO6XTbphgnzqrixOe-11" edge="1">
          <mxGeometry x="306" y="40" as="geometry" />
        </mxCell>
        <mxCell id="GbGGO6XTbphgnzqrixOe-13" value="" style="whiteSpace=wrap;html=1;" parent="1" vertex="1">
          <mxGeometry x="306" y="520" width="164" height="48" as="geometry" />
        </mxCell>
        <mxCell id="GbGGO6XTbphgnzqrixOe-14" value="" style="edgeStyle=orthogonalEdgeStyle;rounded=0;orthogonalLoop=1;jettySize=auto;html=1;" parent="1" source="GbGGO6XTbphgnzqrixOe-11" target="GbGGO6XTbphgnzqrixOe-13" edge="1">
          <mxGeometry x="306" y="40" as="geometry" />
        </mxCell>
        <mxCell id="GbGGO6XTbphgnzqrixOe-15" value="" style="whiteSpace=wrap;html=1;" parent="1" vertex="1">
          <mxGeometry x="306" y="592" width="164" height="48" as="geometry" />
        </mxCell>
        <mxCell id="GbGGO6XTbphgnzqrixOe-16" value="" style="edgeStyle=orthogonalEdgeStyle;rounded=0;orthogonalLoop=1;jettySize=auto;html=1;" parent="1" source="GbGGO6XTbphgnzqrixOe-13" target="GbGGO6XTbphgnzqrixOe-15" edge="1">
          <mxGeometry x="306" y="40" as="geometry" />
        </mxCell>
      </root>
    </mxGraphModel>
  </diagram>
</mxfile>
